<svg xmlns="http://www.w3.org/2000/svg" fill="none" viewBox="0 0 170 68" height="68" width="170">
<path fill="#EC2A2A" d="M42.9548 0H0V28.6967H14.2581V42.9548H42.9548V28.5162L28.6967 14.2581H42.9548V0ZM28.6967 14.2581V28.6967H14.2581V14.2581H28.6967Z" clip-rule="evenodd" fill-rule="evenodd"></path>
<path fill="#F69494" d="M0 28.6987H14.2574V42.9562L0 28.6987Z"></path>
<path fill="white" d="M134.076 40.6366L146.826 2.9436H157.248L169.998 40.6366H161.448L158.918 32.9462H145.106L142.576 40.6366H134.076ZM147.281 26.1159H156.743L150.975 8.30663H153.1L147.281 26.1159Z"></path>
<path fill="white" d="M122.335 40.6366V2.9436H130.178V40.6366H122.335Z"></path>
<path fill="white" d="M101.198 40.6366V9.77387H91.6357V2.9436H118.451V9.77387H109.04V40.6366H101.198Z"></path>
<path fill="white" d="M72.3607 41.2449C69.6623 41.2449 67.1495 40.7558 64.8221 39.7776C62.4948 38.7995 60.4541 37.4334 58.7002 35.6795C56.9462 33.9255 55.5802 31.868 54.602 29.5069C53.6238 27.1458 53.1348 24.5655 53.1348 21.766C53.1348 18.9664 53.607 16.3861 54.5514 14.025C55.4958 11.6302 56.8282 9.57267 58.5484 7.85245C60.2686 6.09851 62.2755 4.74932 64.5691 3.80489C66.8965 2.82673 69.4262 2.33765 72.1583 2.33765C74.8904 2.33765 77.3358 2.793 79.4945 3.7037C81.687 4.6144 83.5421 5.82867 85.0599 7.34651C86.5778 8.86434 87.6571 10.5508 88.298 12.406L81.3665 15.7452C80.7257 13.9238 79.5957 12.4228 77.9767 11.2423C76.3914 10.028 74.4519 9.42088 72.1583 9.42088C69.9322 9.42088 67.9758 9.9437 66.2894 10.9893C64.6029 12.0349 63.2874 13.4853 62.343 15.3405C61.4323 17.1619 60.9769 19.3037 60.9769 21.766C60.9769 24.2282 61.466 26.3869 62.4442 28.2421C63.4223 30.0972 64.7546 31.5476 66.4411 32.5932C68.1614 33.6388 70.1345 34.1616 72.3607 34.1616C74.0809 34.1616 75.6831 33.8412 77.1672 33.2003C78.685 32.5257 79.8993 31.5644 80.81 30.3164C81.7544 29.0684 82.2266 27.5675 82.2266 25.8135V22.6767L85.8189 25.7123H72.1583V19.135H90.0688V23.132C90.0688 26.2014 89.5629 28.8829 88.551 31.1765C87.5391 33.4364 86.173 35.3253 84.4528 36.8431C82.7663 38.3272 80.8606 39.4403 78.7356 40.1824C76.6444 40.8907 74.5194 41.2449 72.3607 41.2449Z"></path>
<line stroke-width="1.25" stroke="white" y2="51.4407" y1="51.4407" x1="170" opacity="0.4"></line>
<path fill="white" d="M165.598 65.4865V60.5743H166.83V61.5459L166.76 61.33C166.871 61.0361 167.05 60.8202 167.297 60.6822C167.549 60.5383 167.843 60.4663 168.177 60.4663C168.541 60.4663 168.858 60.5443 169.128 60.7002C169.404 60.8562 169.618 61.0751 169.771 61.357C169.923 61.6329 170 61.9568 170 62.3286V65.4865H168.679V62.6165C168.679 62.4246 168.641 62.2597 168.565 62.1217C168.494 61.9838 168.392 61.8758 168.257 61.7978C168.127 61.7199 167.975 61.6809 167.799 61.6809C167.628 61.6809 167.476 61.7199 167.341 61.7978C167.206 61.8758 167.1 61.9838 167.024 62.1217C166.954 62.2597 166.918 62.4246 166.918 62.6165V65.4865H165.598Z"></path>
<path fill="white" d="M162.252 65.5945C161.776 65.5945 161.342 65.4835 160.948 65.2616C160.561 65.0397 160.25 64.7368 160.015 64.3529C159.786 63.963 159.672 63.5222 159.672 63.0304C159.672 62.5326 159.786 62.0917 160.015 61.7079C160.25 61.324 160.561 61.0211 160.948 60.7992C161.342 60.5773 161.776 60.4663 162.252 60.4663C162.727 60.4663 163.158 60.5773 163.546 60.7992C163.933 61.0211 164.241 61.324 164.47 61.7079C164.705 62.0917 164.822 62.5326 164.822 63.0304C164.822 63.5222 164.705 63.963 164.47 64.3529C164.241 64.7368 163.933 65.0397 163.546 65.2616C163.158 65.4835 162.727 65.5945 162.252 65.5945ZM162.252 64.3799C162.492 64.3799 162.701 64.3229 162.877 64.209C163.059 64.095 163.199 63.9361 163.299 63.7321C163.405 63.5282 163.458 63.2943 163.458 63.0304C163.458 62.7665 163.405 62.5356 163.299 62.3376C163.199 62.1337 163.059 61.9748 162.877 61.8608C162.701 61.7408 162.492 61.6809 162.252 61.6809C162.011 61.6809 161.8 61.7408 161.618 61.8608C161.436 61.9748 161.292 62.1337 161.186 62.3376C161.086 62.5356 161.037 62.7665 161.037 63.0304C161.037 63.2943 161.086 63.5282 161.186 63.7321C161.292 63.9361 161.436 64.095 161.618 64.209C161.8 64.3229 162.011 64.3799 162.252 64.3799Z"></path>
<path fill="white" d="M157.574 65.488V60.5758H158.895V65.488H157.574ZM157.574 60.1349V58.7854H158.895V60.1349H157.574Z"></path>
<path fill="white" d="M156.187 65.5413C155.606 65.5413 155.154 65.3823 154.831 65.0645C154.514 64.7406 154.356 64.2907 154.356 63.7149V61.7447H153.546V60.5751H153.59C153.836 60.5751 154.024 60.5121 154.153 60.3861C154.288 60.2602 154.356 60.0713 154.356 59.8193V59.4595H155.677V60.5751H156.803V61.7447H155.677V63.625C155.677 63.7929 155.706 63.9339 155.765 64.0478C155.823 64.1558 155.914 64.2368 156.037 64.2907C156.161 64.3447 156.313 64.3717 156.495 64.3717C156.536 64.3717 156.583 64.3687 156.636 64.3627C156.689 64.3567 156.745 64.3507 156.803 64.3447V65.4873C156.715 65.4993 156.616 65.5113 156.504 65.5233C156.393 65.5353 156.287 65.5413 156.187 65.5413Z"></path>
<path fill="white" d="M150.313 65.5945C149.967 65.5945 149.668 65.5375 149.415 65.4235C149.163 65.3096 148.969 65.1476 148.834 64.9377C148.699 64.7218 148.632 64.4669 148.632 64.173C148.632 63.8971 148.693 63.6542 148.817 63.4442C148.94 63.2283 149.128 63.0484 149.38 62.9044C149.638 62.7605 149.958 62.6585 150.34 62.5985L151.81 62.3556V63.3453L150.578 63.5702C150.39 63.6062 150.246 63.6692 150.146 63.7591C150.046 63.8431 149.996 63.966 149.996 64.128C149.996 64.2779 150.052 64.3949 150.164 64.4789C150.275 64.5628 150.413 64.6048 150.578 64.6048C150.795 64.6048 150.985 64.5568 151.15 64.4609C151.314 64.3649 151.44 64.236 151.528 64.074C151.622 63.9061 151.669 63.7231 151.669 63.5252V62.2477C151.669 62.0617 151.596 61.9058 151.449 61.7798C151.308 61.6539 151.115 61.5909 150.868 61.5909C150.633 61.5909 150.425 61.6569 150.243 61.7888C150.067 61.9208 149.938 62.0947 149.856 62.3106L148.799 61.7978C148.893 61.5219 149.043 61.285 149.248 61.0871C149.454 60.8892 149.7 60.7362 149.988 60.6283C150.275 60.5203 150.589 60.4663 150.93 60.4663C151.335 60.4663 151.693 60.5413 152.004 60.6912C152.315 60.8412 152.556 61.0511 152.726 61.321C152.902 61.5849 152.99 61.8938 152.99 62.2477V65.4865H151.757V64.6948L152.057 64.6408C151.916 64.8567 151.76 65.0367 151.59 65.1806C151.42 65.3186 151.229 65.4205 151.018 65.4865C150.806 65.5585 150.572 65.5945 150.313 65.5945Z"></path>
<path fill="white" d="M146.535 65.488V60.5758H147.855V65.488H146.535ZM146.535 60.1349V58.7854H147.855V60.1349H146.535Z"></path>
<path fill="white" d="M143.513 65.5945C143.032 65.5945 142.598 65.4835 142.21 65.2616C141.829 65.0337 141.523 64.7248 141.295 64.3349C141.071 63.9451 140.96 63.5072 140.96 63.0214C140.96 62.5356 141.071 62.1007 141.295 61.7169C141.518 61.327 141.823 61.0211 142.21 60.7992C142.598 60.5773 143.032 60.4663 143.513 60.4663C143.871 60.4663 144.203 60.5293 144.508 60.6552C144.813 60.7812 145.074 60.9581 145.292 61.186C145.509 61.408 145.664 61.6719 145.758 61.9778L144.614 62.4816C144.532 62.2357 144.391 62.0407 144.191 61.8968C143.997 61.7528 143.771 61.6809 143.513 61.6809C143.284 61.6809 143.079 61.7379 142.897 61.8518C142.721 61.9658 142.58 62.1247 142.474 62.3286C142.374 62.5326 142.325 62.7665 142.325 63.0304C142.325 63.2943 142.374 63.5282 142.474 63.7321C142.58 63.9361 142.721 64.095 142.897 64.209C143.079 64.3229 143.284 64.3799 143.513 64.3799C143.777 64.3799 144.006 64.3079 144.2 64.164C144.394 64.02 144.532 63.8251 144.614 63.5792L145.758 64.092C145.67 64.3799 145.518 64.6378 145.3 64.8657C145.083 65.0936 144.822 65.2736 144.517 65.4055C144.212 65.5315 143.877 65.5945 143.513 65.5945Z"></path>
<path fill="white" d="M137.805 65.5945C137.329 65.5945 136.895 65.4835 136.502 65.2616C136.114 65.0397 135.803 64.7368 135.568 64.3529C135.34 63.963 135.225 63.5222 135.225 63.0304C135.225 62.5326 135.34 62.0917 135.568 61.7079C135.803 61.324 136.114 61.0211 136.502 60.7992C136.895 60.5773 137.329 60.4663 137.805 60.4663C138.28 60.4663 138.712 60.5773 139.099 60.7992C139.486 61.0211 139.794 61.324 140.023 61.7079C140.258 62.0917 140.376 62.5326 140.376 63.0304C140.376 63.5222 140.258 63.963 140.023 64.3529C139.794 64.7368 139.486 65.0397 139.099 65.2616C138.712 65.4835 138.28 65.5945 137.805 65.5945ZM137.805 64.3799C138.045 64.3799 138.254 64.3229 138.43 64.209C138.612 64.095 138.753 63.9361 138.852 63.7321C138.958 63.5282 139.011 63.2943 139.011 63.0304C139.011 62.7665 138.958 62.5356 138.852 62.3376C138.753 62.1337 138.612 61.9748 138.43 61.8608C138.254 61.7408 138.045 61.6809 137.805 61.6809C137.564 61.6809 137.353 61.7408 137.171 61.8608C136.989 61.9748 136.845 62.1337 136.739 62.3376C136.64 62.5356 136.59 62.7665 136.59 63.0304C136.59 63.2943 136.64 63.5282 136.739 63.7321C136.845 63.9361 136.989 64.095 137.171 64.209C137.353 64.3229 137.564 64.3799 137.805 64.3799Z"></path>
<path fill="white" d="M132.77 65.5945C132.242 65.5945 131.781 65.4685 131.388 65.2166C131.001 64.9587 130.737 64.6138 130.596 64.182L131.564 63.7141C131.687 63.978 131.855 64.185 132.066 64.3349C132.277 64.4849 132.512 64.5598 132.77 64.5598C132.958 64.5598 133.102 64.5208 133.202 64.4429C133.302 64.3649 133.351 64.2569 133.351 64.119C133.351 64.047 133.334 63.987 133.299 63.9391C133.263 63.8851 133.211 63.8371 133.14 63.7951C133.07 63.7531 132.982 63.7171 132.876 63.6871L132.057 63.4532C131.664 63.3393 131.362 63.1563 131.15 62.9044C130.939 62.6465 130.833 62.3436 130.833 61.9958C130.833 61.6899 130.91 61.423 131.062 61.195C131.215 60.9671 131.429 60.7902 131.705 60.6642C131.981 60.5323 132.298 60.4663 132.656 60.4663C133.125 60.4663 133.536 60.5803 133.888 60.8082C134.247 61.0301 134.499 61.345 134.646 61.7528L133.668 62.2207C133.598 62.0168 133.469 61.8548 133.281 61.7349C133.099 61.6089 132.891 61.5459 132.656 61.5459C132.486 61.5459 132.351 61.5819 132.251 61.6539C132.157 61.7259 132.11 61.8248 132.11 61.9508C132.11 62.0167 132.128 62.0767 132.163 62.1307C132.198 62.1847 132.254 62.2327 132.33 62.2747C132.412 62.3166 132.512 62.3556 132.629 62.3916L133.395 62.6255C133.795 62.7455 134.1 62.9284 134.311 63.1743C134.522 63.4142 134.628 63.7111 134.628 64.065C134.628 64.3709 134.549 64.6378 134.39 64.8657C134.238 65.0936 134.023 65.2736 133.748 65.4055C133.472 65.5315 133.146 65.5945 132.77 65.5945Z"></path>
<path fill="white" d="M128.243 65.5945C127.715 65.5945 127.254 65.4685 126.861 65.2166C126.473 64.9587 126.209 64.6138 126.068 64.182L127.037 63.7141C127.16 63.978 127.327 64.185 127.539 64.3349C127.75 64.4849 127.985 64.5598 128.243 64.5598C128.431 64.5598 128.575 64.5208 128.674 64.4429C128.774 64.3649 128.824 64.2569 128.824 64.119C128.824 64.047 128.806 63.987 128.771 63.9391C128.736 63.8851 128.683 63.8371 128.613 63.7951C128.542 63.7531 128.454 63.7171 128.349 63.6871L127.53 63.4532C127.137 63.3393 126.834 63.1563 126.623 62.9044C126.412 62.6465 126.306 62.3436 126.306 61.9958C126.306 61.6899 126.382 61.423 126.535 61.195C126.688 60.9671 126.902 60.7902 127.178 60.6642C127.454 60.5323 127.771 60.4663 128.129 60.4663C128.598 60.4663 129.009 60.5803 129.361 60.8082C129.719 61.0301 129.972 61.345 130.118 61.7528L129.141 62.2207C129.071 62.0168 128.941 61.8548 128.754 61.7349C128.572 61.6089 128.363 61.5459 128.129 61.5459C127.958 61.5459 127.823 61.5819 127.724 61.6539C127.63 61.7259 127.583 61.8248 127.583 61.9508C127.583 62.0167 127.6 62.0767 127.636 62.1307C127.671 62.1847 127.726 62.2327 127.803 62.2747C127.885 62.3166 127.985 62.3556 128.102 62.3916L128.868 62.6255C129.267 62.7455 129.572 62.9284 129.784 63.1743C129.995 63.4142 130.101 63.7111 130.101 64.065C130.101 64.3709 130.021 64.6378 129.863 64.8657C129.71 65.0936 129.496 65.2736 129.22 65.4055C128.944 65.5315 128.619 65.5945 128.243 65.5945Z"></path>
<path fill="white" d="M119.522 65.488L121.741 58.7854H123.554L125.773 65.488H124.285L123.845 64.1205H121.441L121.001 65.488H119.522ZM121.82 62.9059H123.466L122.463 59.7391H122.832L121.82 62.9059Z"></path>
<path fill="white" d="M113.779 67.4699C113.638 67.4699 113.5 67.4579 113.365 67.4339C113.236 67.4099 113.121 67.3709 113.022 67.3169V66.2103C113.104 66.2343 113.201 66.2553 113.312 66.2733C113.424 66.2913 113.526 66.3003 113.62 66.3003C113.879 66.3003 114.063 66.2373 114.175 66.1114C114.287 65.9914 114.377 65.8535 114.448 65.6975L114.774 64.9328L114.756 66.0574L112.643 60.5784H114.061L115.46 64.474H114.932L116.332 60.5784H117.75L115.689 65.9494C115.56 66.2853 115.402 66.5672 115.214 66.7951C115.026 67.023 114.812 67.191 114.571 67.2989C114.336 67.4129 114.072 67.4699 113.779 67.4699Z"></path>
<path fill="white" d="M109.636 65.4884V60.5762H110.868V61.7548L110.78 61.5838C110.886 61.17 111.059 60.8911 111.3 60.7471C111.546 60.5972 111.837 60.5222 112.171 60.5222H112.453V61.6918H112.039C111.716 61.6918 111.455 61.7938 111.256 61.9977C111.056 62.1956 110.956 62.4775 110.956 62.8434V65.4884H109.636Z"></path>
<path fill="white" d="M108.243 65.5413C107.662 65.5413 107.21 65.3823 106.887 65.0645C106.57 64.7406 106.412 64.2907 106.412 63.7149V61.7447H105.602V60.5751H105.646C105.892 60.5751 106.08 60.5121 106.209 60.3861C106.344 60.2602 106.412 60.0713 106.412 59.8193V59.4595H107.732V60.5751H108.859V61.7447H107.732V63.625C107.732 63.7929 107.762 63.9339 107.82 64.0478C107.879 64.1558 107.97 64.2368 108.093 64.2907C108.216 64.3447 108.369 64.3717 108.551 64.3717C108.592 64.3717 108.639 64.3687 108.692 64.3627C108.745 64.3567 108.8 64.3507 108.859 64.3447V65.4873C108.771 65.4993 108.671 65.5113 108.56 65.5233C108.448 65.5353 108.343 65.5413 108.243 65.5413Z"></path>
<path fill="white" d="M103.282 65.5945C102.753 65.5945 102.293 65.4685 101.899 65.2166C101.512 64.9587 101.248 64.6138 101.107 64.182L102.075 63.7141C102.199 63.978 102.366 64.185 102.577 64.3349C102.789 64.4849 103.023 64.5598 103.282 64.5598C103.469 64.5598 103.613 64.5208 103.713 64.4429C103.813 64.3649 103.863 64.2569 103.863 64.119C103.863 64.047 103.845 63.987 103.81 63.9391C103.775 63.8851 103.722 63.8371 103.651 63.7951C103.581 63.7531 103.493 63.7171 103.387 63.6871L102.568 63.4532C102.175 63.3393 101.873 63.1563 101.662 62.9044C101.45 62.6465 101.345 62.3436 101.345 61.9958C101.345 61.6899 101.421 61.423 101.574 61.195C101.726 60.9671 101.94 60.7902 102.216 60.6642C102.492 60.5323 102.809 60.4663 103.167 60.4663C103.637 60.4663 104.048 60.5803 104.4 60.8082C104.758 61.0301 105.01 61.345 105.157 61.7528L104.18 62.2207C104.109 62.0168 103.98 61.8548 103.792 61.7349C103.61 61.6089 103.402 61.5459 103.167 61.5459C102.997 61.5459 102.862 61.5819 102.762 61.6539C102.668 61.7259 102.621 61.8248 102.621 61.9508C102.621 62.0167 102.639 62.0767 102.674 62.1307C102.709 62.1847 102.765 62.2327 102.841 62.2747C102.924 62.3166 103.023 62.3556 103.141 62.3916L103.907 62.6255C104.306 62.7455 104.611 62.9284 104.822 63.1743C105.034 63.4142 105.139 63.7111 105.139 64.065C105.139 64.3709 105.06 64.6378 104.902 64.8657C104.749 65.0936 104.535 65.2736 104.259 65.4055C103.983 65.5315 103.657 65.5945 103.282 65.5945Z"></path>
<path fill="white" d="M97.8532 65.5986C97.4658 65.5986 97.1342 65.5146 96.8584 65.3467C96.5884 65.1727 96.3829 64.9328 96.2421 64.6269C96.1012 64.321 96.0308 63.9641 96.0308 63.5563V60.5784H97.3514V63.4483C97.3514 63.6343 97.3866 63.7992 97.457 63.9432C97.5333 64.0811 97.639 64.1891 97.774 64.267C97.909 64.345 98.0616 64.384 98.2318 64.384C98.4079 64.384 98.5605 64.345 98.6896 64.267C98.8246 64.1891 98.9273 64.0811 98.9978 63.9432C99.0741 63.7992 99.1122 63.6343 99.1122 63.4483V60.5784H100.433V65.4906H99.2003V64.5189L99.2707 64.7349C99.1592 65.0288 98.9772 65.2477 98.7249 65.3916C98.4783 65.5296 98.1878 65.5986 97.8532 65.5986Z"></path>
<path fill="white" d="M92.4637 65.5977C91.9941 65.5977 91.5745 65.4837 91.2047 65.2558C90.8349 65.0279 90.5415 64.719 90.3243 64.3292C90.113 63.9393 90.0073 63.5075 90.0073 63.0336C90.0073 62.5538 90.1159 62.122 90.3331 61.7381C90.5503 61.3482 90.8437 61.0393 91.2135 60.8114C91.5833 60.5835 91.9971 60.4696 92.4549 60.4696C92.8071 60.4696 93.1182 60.5385 93.3881 60.6765C93.664 60.8084 93.8812 60.9974 94.0397 61.2433L93.8372 61.5132V58.6792H95.1578V65.4897H93.9252V64.5901L94.0485 64.869C93.8841 65.1089 93.6611 65.2918 93.3793 65.4178C93.0976 65.5377 92.7924 65.5977 92.4637 65.5977ZM92.6222 64.3831C92.8628 64.3831 93.0741 64.3262 93.2561 64.2122C93.438 64.0982 93.5789 63.9393 93.6787 63.7354C93.7843 63.5315 93.8372 63.2975 93.8372 63.0336C93.8372 62.7697 93.7843 62.5358 93.6787 62.3319C93.5789 62.128 93.438 61.969 93.2561 61.8551C93.0741 61.7411 92.8628 61.6841 92.6222 61.6841C92.3815 61.6841 92.1644 61.7441 91.9707 61.8641C91.7828 61.978 91.6361 62.137 91.5305 62.3409C91.4248 62.5388 91.372 62.7697 91.372 63.0336C91.372 63.2975 91.4248 63.5315 91.5305 63.7354C91.6361 63.9393 91.7828 64.0982 91.9707 64.2122C92.1644 64.3262 92.3815 64.3831 92.6222 64.3831Z"></path>
<path fill="white" d="M84.9316 65.4865V60.5743H86.1642V61.5459L86.0938 61.33C86.2053 61.0361 86.3843 60.8202 86.6309 60.6822C86.8832 60.5383 87.1767 60.4663 87.5113 60.4663C87.8752 60.4663 88.1921 60.5443 88.4621 60.7002C88.738 60.8562 88.9522 61.0751 89.1049 61.357C89.2575 61.6329 89.3338 61.9568 89.3338 62.3286V65.4865H88.0131V62.6165C88.0131 62.4246 87.975 62.2597 87.8987 62.1217C87.8282 61.9838 87.7255 61.8758 87.5905 61.7978C87.4614 61.7199 87.3088 61.6809 87.1327 61.6809C86.9625 61.6809 86.8099 61.7199 86.6749 61.7978C86.5399 61.8758 86.4342 61.9838 86.3579 62.1217C86.2875 62.2597 86.2523 62.4246 86.2523 62.6165V65.4865H84.9316Z"></path>
<path fill="white" d="M82.502 65.488V58.7854H83.8666V65.488H82.502Z"></path>
<path fill="white" d="M76.2734 67.4699C76.1326 67.4699 75.9946 67.4579 75.8596 67.4339C75.7305 67.4099 75.6161 67.3709 75.5163 67.3169V66.2103C75.5985 66.2343 75.6953 66.2553 75.8068 66.2733C75.9183 66.2913 76.021 66.3003 76.115 66.3003C76.3732 66.3003 76.5581 66.2373 76.6696 66.1114C76.7812 65.9914 76.8721 65.8535 76.9426 65.6975L77.2683 64.9328L77.2507 66.0574L75.1377 60.5784H76.5552L77.955 64.474H77.4268L78.8267 60.5784H80.2441L78.184 65.9494C78.0548 66.2853 77.8964 66.5672 77.7085 66.7951C77.5207 67.023 77.3065 67.191 77.0658 67.2989C76.831 67.4129 76.5669 67.4699 76.2734 67.4699Z"></path>
<path fill="white" d="M72.1787 67.4658C71.8089 67.4658 71.4656 67.4028 71.1486 67.2769C70.8317 67.1509 70.5587 66.974 70.3298 66.746C70.1068 66.5241 69.9454 66.2602 69.8456 65.9543L71.0694 65.5135C71.1339 65.7414 71.266 65.9213 71.4656 66.0533C71.6651 66.1852 71.9028 66.2512 72.1787 66.2512C72.3959 66.2512 72.5837 66.2092 72.7422 66.1253C72.9007 66.0473 73.021 65.9303 73.1032 65.7744C73.1912 65.6185 73.2352 65.4355 73.2352 65.2256V64.101L73.4905 64.4249C73.3262 64.7008 73.1149 64.9077 72.8566 65.0457C72.5984 65.1776 72.2961 65.2436 71.9498 65.2436C71.5037 65.2436 71.1046 65.1416 70.7524 64.9377C70.4003 64.7278 70.1244 64.4429 69.9248 64.083C69.7253 63.7171 69.6255 63.3033 69.6255 62.8415C69.6255 62.3796 69.7253 61.9718 69.9248 61.6179C70.1244 61.258 70.3973 60.9761 70.7436 60.7722C71.0899 60.5683 71.4832 60.4663 71.9234 60.4663C72.2697 60.4663 72.572 60.5383 72.8302 60.6822C73.0885 60.8202 73.3086 61.0331 73.4905 61.321L73.3233 61.6449V60.5743H74.5559V65.2256C74.5559 65.6574 74.4531 66.0413 74.2477 66.3772C74.0423 66.7191 73.7605 66.986 73.4025 67.1779C73.0503 67.3698 72.6424 67.4658 72.1787 67.4658ZM72.1347 64.02C72.3577 64.02 72.5514 63.972 72.7158 63.8761C72.8801 63.7801 73.0063 63.6452 73.0944 63.4712C73.1883 63.2973 73.2352 63.0934 73.2352 62.8594C73.2352 62.6255 73.1883 62.4216 73.0944 62.2477C73.0004 62.0677 72.8713 61.9298 72.707 61.8338C72.5426 61.7319 72.3519 61.6809 72.1347 61.6809C71.9117 61.6809 71.7121 61.7319 71.536 61.8338C71.3658 61.9298 71.2308 62.0677 71.131 62.2477C71.0371 62.4216 70.9901 62.6255 70.9901 62.8594C70.9901 63.0874 71.0371 63.2883 71.131 63.4622C71.2308 63.6362 71.3658 63.7741 71.536 63.8761C71.7121 63.972 71.9117 64.02 72.1347 64.02Z"></path>
<path fill="white" d="M66.4703 65.5945C65.9948 65.5945 65.5605 65.4835 65.1672 65.2616C64.7799 65.0397 64.4688 64.7368 64.234 64.3529C64.0051 63.963 63.8906 63.5222 63.8906 63.0304C63.8906 62.5326 64.0051 62.0917 64.234 61.7079C64.4688 61.324 64.7799 61.0211 65.1672 60.7992C65.5605 60.5773 65.9948 60.4663 66.4703 60.4663C66.9457 60.4663 67.3771 60.5773 67.7645 60.7992C68.1519 61.0211 68.46 61.324 68.6889 61.7079C68.9237 62.0917 69.0411 62.5326 69.0411 63.0304C69.0411 63.5222 68.9237 63.963 68.6889 64.3529C68.46 64.7368 68.1519 65.0397 67.7645 65.2616C67.3771 65.4835 66.9457 65.5945 66.4703 65.5945ZM66.4703 64.3799C66.7109 64.3799 66.9193 64.3229 67.0954 64.209C67.2773 64.095 67.4182 63.9361 67.518 63.7321C67.6236 63.5282 67.6764 63.2943 67.6764 63.0304C67.6764 62.7665 67.6236 62.5356 67.518 62.3376C67.4182 62.1337 67.2773 61.9748 67.0954 61.8608C66.9193 61.7408 66.7109 61.6809 66.4703 61.6809C66.2296 61.6809 66.0183 61.7408 65.8364 61.8608C65.6544 61.9748 65.5106 62.1337 65.405 62.3376C65.3052 62.5356 65.2553 62.7665 65.2553 63.0304C65.2553 63.2943 65.3052 63.5282 65.405 63.7321C65.5106 63.9361 65.6544 64.095 65.8364 64.209C66.0183 64.3229 66.2296 64.3799 66.4703 64.3799Z"></path>
<path fill="white" d="M61.7935 65.4897V58.6792H63.1141V65.4897H61.7935Z"></path>
<path fill="white" d="M58.4463 65.5945C57.9709 65.5945 57.5366 65.4835 57.1433 65.2616C56.7559 65.0397 56.4448 64.7368 56.2101 64.3529C55.9812 63.963 55.8667 63.5222 55.8667 63.0304C55.8667 62.5326 55.9812 62.0917 56.2101 61.7079C56.4448 61.324 56.7559 61.0211 57.1433 60.7992C57.5366 60.5773 57.9709 60.4663 58.4463 60.4663C58.9218 60.4663 59.3532 60.5773 59.7406 60.7992C60.1279 61.0211 60.4361 61.324 60.665 61.7079C60.8998 62.0917 61.0172 62.5326 61.0172 63.0304C61.0172 63.5222 60.8998 63.963 60.665 64.3529C60.4361 64.7368 60.1279 65.0397 59.7406 65.2616C59.3532 65.4835 58.9218 65.5945 58.4463 65.5945ZM58.4463 64.3799C58.687 64.3799 58.8954 64.3229 59.0714 64.209C59.2534 64.095 59.3943 63.9361 59.494 63.7321C59.5997 63.5282 59.6525 63.2943 59.6525 63.0304C59.6525 62.7665 59.5997 62.5356 59.494 62.3376C59.3943 62.1337 59.2534 61.9748 59.0714 61.8608C58.8954 61.7408 58.687 61.6809 58.4463 61.6809C58.2057 61.6809 57.9944 61.7408 57.8124 61.8608C57.6305 61.9748 57.4867 62.1337 57.381 62.3376C57.2812 62.5356 57.2314 62.7665 57.2314 63.0304C57.2314 63.2943 57.2812 63.5282 57.381 63.7321C57.4867 63.9361 57.6305 64.095 57.8124 64.209C57.9944 64.3229 58.2057 64.3799 58.4463 64.3799Z"></path>
<path fill="white" d="M50.791 65.4865V60.5743H52.0236V61.5459L51.9532 61.33C52.0647 61.0361 52.2437 60.8202 52.4902 60.6822C52.7426 60.5383 53.0361 60.4663 53.3707 60.4663C53.7346 60.4663 54.0515 60.5443 54.3215 60.7002C54.5974 60.8562 54.8116 61.0751 54.9642 61.357C55.1168 61.6329 55.1931 61.9568 55.1931 62.3286V65.4865H53.8725V62.6165C53.8725 62.4246 53.8343 62.2597 53.758 62.1217C53.6876 61.9838 53.5849 61.8758 53.4499 61.7978C53.3208 61.7199 53.1682 61.6809 52.9921 61.6809C52.8219 61.6809 52.6692 61.7199 52.5343 61.7978C52.3993 61.8758 52.2936 61.9838 52.2173 62.1217C52.1469 62.2597 52.1117 62.4246 52.1117 62.6165V65.4865H50.791Z"></path>
<path fill="white" d="M45.5181 65.4897V58.6792H46.8387V61.5492L46.6802 61.3332C46.7917 61.0393 46.9708 60.8234 47.2173 60.6855C47.4697 60.5415 47.7631 60.4696 48.0977 60.4696C48.4616 60.4696 48.7786 60.5475 49.0486 60.7035C49.3244 60.8594 49.5387 61.0783 49.6913 61.3602C49.8439 61.6361 49.9202 61.96 49.9202 62.3319V65.4897H48.5995V62.6198C48.5995 62.4278 48.5614 62.2629 48.4851 62.125C48.4147 61.987 48.3119 61.879 48.1769 61.8011C48.0478 61.7231 47.8952 61.6841 47.7191 61.6841C47.5489 61.6841 47.3963 61.7231 47.2613 61.8011C47.1263 61.879 47.0207 61.987 46.9444 62.125C46.8739 62.2629 46.8387 62.4278 46.8387 62.6198V65.4897H45.5181Z"></path>
<path fill="white" d="M42.4961 65.5945C42.0148 65.5945 41.5805 65.4835 41.1931 65.2616C40.8116 65.0337 40.5063 64.7248 40.2774 64.3349C40.0544 63.9451 39.9429 63.5072 39.9429 63.0214C39.9429 62.5356 40.0544 62.1007 40.2774 61.7169C40.5005 61.327 40.8057 61.0211 41.1931 60.7992C41.5805 60.5773 42.0148 60.4663 42.4961 60.4663C42.8541 60.4663 43.1858 60.5293 43.491 60.6552C43.7962 60.7812 44.0574 60.9581 44.2746 61.186C44.4917 61.408 44.6473 61.6719 44.7412 61.9778L43.5966 62.4816C43.5145 62.2357 43.3736 62.0407 43.174 61.8968C42.9803 61.7528 42.7544 61.6809 42.4961 61.6809C42.2672 61.6809 42.0618 61.7379 41.8798 61.8518C41.7037 61.9658 41.5629 62.1247 41.4572 62.3286C41.3574 62.5326 41.3075 62.7665 41.3075 63.0304C41.3075 63.2943 41.3574 63.5282 41.4572 63.7321C41.5629 63.9361 41.7037 64.095 41.8798 64.209C42.0618 64.3229 42.2672 64.3799 42.4961 64.3799C42.7602 64.3799 42.9891 64.3079 43.1828 64.164C43.3765 64.02 43.5145 63.8251 43.5966 63.5792L44.7412 64.092C44.6531 64.3799 44.5005 64.6378 44.2834 64.8657C44.0662 65.0936 43.805 65.2736 43.4998 65.4055C43.1946 65.5315 42.86 65.5945 42.4961 65.5945Z"></path>
<path fill="white" d="M37.0688 65.5945C36.5581 65.5945 36.115 65.4805 35.7393 65.2526C35.3637 65.0187 35.0732 64.7068 34.8677 64.3169C34.6623 63.9271 34.5596 63.4952 34.5596 63.0214C34.5596 62.5296 34.6652 62.0917 34.8765 61.7079C35.0937 61.324 35.3842 61.0211 35.7481 60.7992C36.1121 60.5773 36.5229 60.4663 36.9807 60.4663C37.3623 60.4663 37.6997 60.5293 37.9932 60.6552C38.2867 60.7752 38.5332 60.9461 38.7328 61.1681C38.9382 61.39 39.0938 61.6479 39.1994 61.9418C39.3051 62.2297 39.3579 62.5446 39.3579 62.8864C39.3579 62.9824 39.352 63.0784 39.3403 63.1743C39.3344 63.2643 39.3197 63.3423 39.2962 63.4082H35.6953V62.4186H38.5479L37.9228 62.8864C37.9815 62.6285 37.9785 62.4006 37.914 62.2027C37.8494 61.9988 37.735 61.8398 37.5706 61.7259C37.4121 61.6059 37.2155 61.5459 36.9807 61.5459C36.7518 61.5459 36.5552 61.6029 36.3909 61.7169C36.2265 61.8308 36.1032 61.9988 36.0211 62.2207C35.9389 62.4426 35.9066 62.7125 35.9242 63.0304C35.9007 63.3063 35.933 63.5492 36.0211 63.7591C36.1091 63.969 36.2441 64.134 36.4261 64.2539C36.608 64.3679 36.8281 64.4249 37.0864 64.4249C37.3212 64.4249 37.5207 64.3769 37.6851 64.2809C37.8553 64.185 37.9874 64.053 38.0813 63.8851L39.1378 64.3979C39.0439 64.6378 38.8942 64.8477 38.6888 65.0277C38.4892 65.2076 38.2515 65.3485 37.9756 65.4505C37.6997 65.5465 37.3975 65.5945 37.0688 65.5945Z"></path>
<path fill="white" d="M31.7929 65.488V60H30.1289V58.7854H34.7952V60H33.1576V65.488H31.7929Z"></path>
<path fill="white" d="M26.6475 65.4897V58.6792H27.9681V65.4897H26.6475Z"></path>
<path fill="white" d="M23.0034 65.5945C22.6571 65.5945 22.3577 65.5375 22.1054 65.4235C21.853 65.3096 21.6593 65.1476 21.5243 64.9377C21.3893 64.7218 21.3218 64.4669 21.3218 64.173C21.3218 63.8971 21.3834 63.6542 21.5067 63.4442C21.6299 63.2283 21.8177 63.0484 22.0701 62.9044C22.3284 62.7605 22.6483 62.6585 23.0298 62.5985L24.5001 62.3556V63.3453L23.2675 63.5702C23.0797 63.6062 22.9359 63.6692 22.8361 63.7591C22.7363 63.8431 22.6864 63.966 22.6864 64.128C22.6864 64.2779 22.7422 64.3949 22.8537 64.4789C22.9652 64.5628 23.1032 64.6048 23.2675 64.6048C23.4847 64.6048 23.6754 64.5568 23.8398 64.4609C24.0041 64.3649 24.1303 64.236 24.2184 64.074C24.3123 63.9061 24.3592 63.7231 24.3592 63.5252V62.2477C24.3592 62.0617 24.2859 61.9058 24.1391 61.7798C23.9983 61.6539 23.8046 61.5909 23.5581 61.5909C23.3233 61.5909 23.1149 61.6569 22.933 61.7888C22.7569 61.9208 22.6277 62.0947 22.5456 62.3106L21.4891 61.7978C21.583 61.5219 21.7326 61.285 21.9381 61.0871C22.1435 60.8892 22.39 60.7362 22.6776 60.6283C22.9652 60.5203 23.2793 60.4663 23.6197 60.4663C24.0247 60.4663 24.3827 60.5413 24.6938 60.6912C25.0049 60.8412 25.2455 61.0511 25.4157 61.321C25.5918 61.5849 25.6799 61.8938 25.6799 62.2477V65.4865H24.4473V64.6948L24.7466 64.6408C24.6058 64.8567 24.4502 65.0367 24.28 65.1806C24.1098 65.3186 23.919 65.4205 23.7077 65.4865C23.4964 65.5585 23.2616 65.5945 23.0034 65.5945Z"></path>
<path fill="white" d="M18.2859 65.5977C17.9572 65.5977 17.652 65.5377 17.3703 65.4178C17.0944 65.2918 16.8713 65.1089 16.7011 64.869L16.8244 64.5901V65.4897H15.5918V58.6792H16.9124V61.5132L16.7099 61.2433C16.8684 60.9974 17.0826 60.8084 17.3526 60.6765C17.6285 60.5385 17.9425 60.4696 18.2947 60.4696C18.7525 60.4696 19.1663 60.5835 19.5361 60.8114C19.9059 61.0393 20.1993 61.3482 20.4165 61.7381C20.6337 62.122 20.7423 62.5538 20.7423 63.0336C20.7423 63.5075 20.6337 63.9393 20.4165 64.3292C20.2052 64.719 19.9147 65.0279 19.5449 65.2558C19.1751 65.4837 18.7555 65.5977 18.2859 65.5977ZM18.1274 64.3831C18.3739 64.3831 18.5911 64.3262 18.7789 64.2122C18.9668 64.0982 19.1135 63.9393 19.2191 63.7354C19.3248 63.5315 19.3776 63.2975 19.3776 63.0336C19.3776 62.7697 19.3248 62.5388 19.2191 62.3409C19.1135 62.137 18.9668 61.978 18.7789 61.8641C18.5911 61.7441 18.3739 61.6841 18.1274 61.6841C17.8926 61.6841 17.6813 61.7411 17.4935 61.8551C17.3116 61.969 17.1678 62.128 17.0621 62.3319C16.9623 62.5358 16.9124 62.7697 16.9124 63.0336C16.9124 63.2975 16.9623 63.5315 17.0621 63.7354C17.1678 63.9393 17.3116 64.0982 17.4935 64.2122C17.6813 64.3262 17.8926 64.3831 18.1274 64.3831Z"></path>
<path fill="white" d="M12.2393 65.5945C11.7639 65.5945 11.3295 65.4835 10.9363 65.2616C10.5489 65.0397 10.2378 64.7368 10.003 64.3529C9.77412 63.963 9.65967 63.5222 9.65967 63.0304C9.65967 62.5326 9.77412 62.0917 10.003 61.7079C10.2378 61.324 10.5489 61.0211 10.9363 60.7992C11.3295 60.5773 11.7639 60.4663 12.2393 60.4663C12.7147 60.4663 13.1461 60.5773 13.5335 60.7992C13.9209 61.0211 14.2291 61.324 14.458 61.7079C14.6928 62.0917 14.8101 62.5326 14.8101 63.0304C14.8101 63.5222 14.6928 63.963 14.458 64.3529C14.2291 64.7368 13.9209 65.0397 13.5335 65.2616C13.1461 65.4835 12.7147 65.5945 12.2393 65.5945ZM12.2393 64.3799C12.48 64.3799 12.6883 64.3229 12.8644 64.209C13.0464 64.095 13.1872 63.9361 13.287 63.7321C13.3927 63.5282 13.4455 63.2943 13.4455 63.0304C13.4455 62.7665 13.3927 62.5356 13.287 62.3376C13.1872 62.1337 13.0464 61.9748 12.8644 61.8608C12.6883 61.7408 12.48 61.6809 12.2393 61.6809C11.9987 61.6809 11.7874 61.7408 11.6054 61.8608C11.4234 61.9748 11.2796 62.1337 11.174 62.3376C11.0742 62.5356 11.0243 62.7665 11.0243 63.0304C11.0243 63.2943 11.0742 63.5282 11.174 63.7321C11.2796 63.9361 11.4234 64.095 11.6054 64.209C11.7874 64.3229 11.9987 64.3799 12.2393 64.3799Z"></path>
<path fill="white" d="M7.56787 65.4897V58.6792H8.88851V65.4897H7.56787Z"></path>
<path fill="white" d="M3.74258 65.5977C3.27302 65.5977 2.83575 65.5107 2.43075 65.3368C2.02576 65.1629 1.67065 64.92 1.36544 64.6081C1.06023 64.2962 0.822511 63.9303 0.652296 63.5105C0.48208 63.0906 0.396973 62.6318 0.396973 62.134C0.396973 61.6361 0.479146 61.1773 0.643491 60.7575C0.807837 60.3316 1.03968 59.9657 1.33903 59.6598C1.63837 59.348 1.9876 59.108 2.38673 58.9401C2.79172 58.7662 3.23194 58.6792 3.70737 58.6792C4.18279 58.6792 4.60833 58.7602 4.98398 58.9221C5.3655 59.0841 5.68832 59.3 5.95244 59.5699C6.21657 59.8398 6.4044 60.1397 6.51592 60.4696L5.30974 61.0633C5.19822 60.7395 5.00159 60.4726 4.71985 60.2626C4.44399 60.0467 4.10649 59.9387 3.70737 59.9387C3.31998 59.9387 2.97955 60.0317 2.68607 60.2176C2.3926 60.4036 2.16369 60.6615 1.99934 60.9914C1.84087 61.3152 1.76163 61.6961 1.76163 62.134C1.76163 62.5718 1.84674 62.9557 2.01695 63.2855C2.18717 63.6154 2.41901 63.8733 2.71249 64.0593C3.01183 64.2452 3.3552 64.3382 3.74258 64.3382C4.04193 64.3382 4.32073 64.2812 4.57898 64.1672C4.84311 64.0473 5.05441 63.8763 5.21289 63.6544C5.37723 63.4325 5.45941 63.1656 5.45941 62.8537V62.2959L6.08451 62.8357H3.70737V61.6661H6.82406V62.3769C6.82406 62.9227 6.73602 63.3995 6.55994 63.8074C6.38385 64.2092 6.14614 64.5451 5.84679 64.815C5.55332 65.0789 5.22169 65.2768 4.85192 65.4088C4.48801 65.5347 4.11823 65.5977 3.74258 65.5977Z"></path>
</svg>
