<svg xmlns="http://www.w3.org/2000/svg" xmlns:xlink="http://www.w3.org/1999/xlink" width="240" zoomAndPan="magnify" viewBox="0 0 180 72" height="96" preserveAspectRatio="xMidYMid meet" version="1.0"><defs><clipPath id="c79f0860cb"><path d="M 16 21.992188 L 164 21.992188 L 164 49.742188 L 16 49.742188 Z M 16 21.992188 " clip-rule="nonzero"/></clipPath></defs><path fill="#ffffff" d="M 31.585938 27.933594 C 35.492188 27.933594 37.742188 29.964844 38.683594 32.292969 L 35.402344 33.363281 C 35.246094 32.972656 35.035156 32.617188 34.765625 32.292969 C 34.496094 31.96875 34.179688 31.695312 33.824219 31.46875 C 33.464844 31.242188 33.082031 31.078125 32.671875 30.972656 C 32.261719 30.863281 31.84375 30.824219 31.421875 30.847656 C 28.402344 30.847656 25.847656 33.398438 25.847656 36.769531 C 25.847656 39.171875 27.601562 40.972656 30.355469 40.972656 C 31.082031 40.949219 31.773438 40.785156 32.429688 40.472656 C 33.085938 40.164062 33.648438 39.734375 34.117188 39.183594 L 36.730469 40.917969 C 35.921875 41.878906 34.941406 42.617188 33.789062 43.140625 C 32.640625 43.660156 31.433594 43.90625 30.167969 43.882812 C 25.765625 43.882812 22.308594 41.191406 22.304688 36.988281 C 22.269531 31.53125 26.570312 27.945312 31.585938 27.933594 Z M 31.585938 27.933594 " fill-opacity="1" fill-rule="nonzero"/><path fill="#ffffff" d="M 41.421875 28.175781 L 44.820312 28.171875 L 41.988281 40.699219 L 48.71875 40.695312 L 48.078125 43.578125 L 37.917969 43.59375 Z M 41.421875 28.175781 " fill-opacity="1" fill-rule="nonzero"/><path fill="#ffffff" d="M 59.148438 27.898438 C 58.539062 27.886719 57.9375 27.9375 57.339844 28.042969 C 56.742188 28.152344 56.164062 28.316406 55.597656 28.539062 C 55.035156 28.761719 54.496094 29.035156 53.988281 29.363281 C 53.480469 29.695312 53.011719 30.070312 52.578125 30.488281 C 52.144531 30.910156 51.761719 31.371094 51.421875 31.867188 C 51.082031 32.367188 50.796875 32.894531 50.5625 33.449219 C 50.328125 34.003906 50.152344 34.574219 50.035156 35.164062 C 49.921875 35.753906 49.863281 36.347656 49.867188 36.945312 C 49.867188 41.171875 53.304688 43.851562 57.730469 43.84375 C 58.339844 43.855469 58.941406 43.804688 59.539062 43.699219 C 60.136719 43.589844 60.71875 43.421875 61.28125 43.199219 C 61.847656 42.976562 62.382812 42.699219 62.890625 42.371094 C 63.398438 42.039062 63.867188 41.664062 64.296875 41.242188 C 64.730469 40.816406 65.113281 40.355469 65.453125 39.859375 C 65.789062 39.359375 66.074219 38.832031 66.304688 38.277344 C 66.539062 37.722656 66.710938 37.148438 66.824219 36.558594 C 66.941406 35.96875 66.996094 35.375 66.988281 34.773438 C 66.984375 30.570312 63.558594 27.894531 59.148438 27.898438 Z M 57.902344 40.929688 C 55.335938 40.929688 53.394531 39.347656 53.394531 36.734375 C 53.394531 33.433594 55.824219 30.820312 58.914062 30.8125 C 61.480469 30.8125 63.421875 32.425781 63.421875 35.011719 C 63.453125 38.316406 60.988281 40.929688 57.902344 40.929688 Z M 57.902344 40.929688 " fill-opacity="1" fill-rule="nonzero"/><path fill="#ffffff" d="M 68.429688 38.445312 C 68.445312 37.910156 68.507812 37.378906 68.617188 36.855469 L 70.59375 28.140625 L 74.042969 28.140625 L 72.074219 36.871094 C 71.953125 37.28125 71.894531 37.695312 71.902344 38.121094 C 71.902344 39.710938 73.03125 40.9375 75.214844 40.9375 C 77.679688 40.9375 78.851562 39.449219 79.308594 37.300781 L 81.402344 28.125 L 84.851562 28.125 L 82.757812 37.375 C 81.898438 41.121094 79.914062 43.828125 75.003906 43.832031 C 70.714844 43.828125 68.429688 41.648438 68.429688 38.445312 Z M 68.429688 38.445312 " fill-opacity="1" fill-rule="nonzero"/><path fill="#ffffff" d="M 94.078125 28.109375 L 87.898438 28.109375 L 84.390625 43.519531 L 90.652344 43.519531 C 98.148438 43.519531 100.992188 38.769531 100.988281 34.726562 C 100.980469 34.285156 100.933594 33.847656 100.839844 33.414062 C 100.746094 32.984375 100.613281 32.5625 100.4375 32.15625 C 100.261719 31.75 100.042969 31.367188 99.789062 31.003906 C 99.539062 30.636719 99.25 30.300781 98.929688 29.996094 C 98.609375 29.6875 98.257812 29.414062 97.882812 29.171875 C 97.507812 28.933594 97.109375 28.734375 96.695312 28.570312 C 96.277344 28.410156 95.851562 28.289062 95.410156 28.210938 C 94.96875 28.132812 94.527344 28.097656 94.078125 28.109375 Z M 91.289062 40.636719 L 88.464844 40.636719 L 90.652344 31.003906 L 93.429688 31.003906 C 93.695312 30.992188 93.960938 31.011719 94.222656 31.054688 C 94.484375 31.097656 94.738281 31.167969 94.988281 31.261719 C 95.234375 31.359375 95.46875 31.476562 95.691406 31.621094 C 95.914062 31.761719 96.121094 31.925781 96.308594 32.113281 C 96.5 32.296875 96.667969 32.5 96.8125 32.71875 C 96.960938 32.9375 97.082031 33.167969 97.183594 33.410156 C 97.28125 33.65625 97.355469 33.90625 97.402344 34.164062 C 97.449219 34.421875 97.46875 34.683594 97.460938 34.945312 C 97.472656 38.015625 95.148438 40.628906 91.289062 40.636719 Z M 91.289062 40.636719 " fill-opacity="1" fill-rule="nonzero"/><path fill="#ffffff" d="M 104.824219 28.097656 L 116.128906 28.078125 L 115.460938 30.898438 L 107.582031 30.910156 L 106.847656 34.257812 L 113.765625 34.253906 L 113.121094 37.074219 L 106.175781 37.082031 L 104.722656 43.507812 L 101.324219 43.507812 Z M 104.824219 28.097656 " fill-opacity="1" fill-rule="nonzero"/><path fill="#ffffff" d="M 118.46875 28.078125 L 129.773438 28.0625 L 129.105469 30.882812 L 121.226562 30.894531 L 120.484375 34.242188 L 127.410156 34.234375 L 126.765625 37.050781 L 119.816406 37.0625 L 119.011719 40.648438 L 126.890625 40.636719 L 126.273438 43.480469 L 114.964844 43.492188 Z M 118.46875 28.078125 " fill-opacity="1" fill-rule="nonzero"/><path fill="#ffffff" d="M 130.691406 38.503906 C 131.367188 39.277344 132.179688 39.875 133.128906 40.289062 C 134.078125 40.703125 135.070312 40.902344 136.105469 40.878906 C 137.808594 40.878906 138.496094 39.925781 138.496094 39.097656 C 138.496094 38.171875 137.277344 37.6875 135.765625 37.15625 C 133.539062 36.398438 130.753906 35.421875 130.753906 32.632812 C 130.753906 30.320312 133.023438 27.832031 136.976562 27.824219 C 139.515625 27.824219 141.914062 28.714844 143.328125 30.308594 L 141.222656 32.621094 C 140.613281 31.992188 139.902344 31.503906 139.089844 31.164062 C 138.277344 30.824219 137.429688 30.65625 136.542969 30.664062 C 135.230469 30.664062 134.320312 31.433594 134.320312 32.289062 C 134.320312 33.144531 135.542969 33.554688 137.054688 34.132812 C 139.28125 34.890625 142.113281 35.925781 142.117188 38.605469 C 142.125 41.289062 139.777344 43.757812 135.847656 43.761719 C 132.707031 43.761719 129.953125 42.605469 128.609375 40.90625 Z M 130.691406 38.503906 " fill-opacity="1" fill-rule="nonzero"/><path fill="#ffffff" d="M 149.328125 30.921875 L 144.65625 30.929688 L 145.324219 28.042969 L 158.066406 28.027344 L 157.421875 30.917969 L 152.757812 30.921875 L 149.917969 43.445312 L 146.492188 43.449219 Z M 149.328125 30.921875 " fill-opacity="1" fill-rule="nonzero"/><g clip-path="url(#c79f0860cb)"><path fill="#ffffff" d="M 16.378906 21.992188 L 16.378906 49.742188 L 163.949219 49.742188 L 163.949219 21.992188 Z M 161.003906 46.851562 L 19.332031 46.851562 L 19.332031 24.917969 L 161.003906 24.917969 Z M 161.003906 46.851562 " fill-opacity="1" fill-rule="nonzero"/></g></svg>