<svg xmlns="http://www.w3.org/2000/svg" xmlns:xlink="http://www.w3.org/1999/xlink" width="240" zoomAndPan="magnify" viewBox="0 0 180 72" height="96" preserveAspectRatio="xMidYMid meet" version="1.0"><defs><filter x="0%" y="0%" width="100%" height="100%" id="1897aa6b55"><feColorMatrix values="0 0 0 0 1 0 0 0 0 1 0 0 0 0 1 0 0 0 1 0" color-interpolation-filters="sRGB"/></filter><clipPath id="d0c18f5a70"><path d="M 24.5625 9.824219 L 58 9.824219 L 58 43 L 24.5625 43 Z M 24.5625 9.824219 " clip-rule="nonzero"/></clipPath><clipPath id="393d249134"><path d="M 24.5625 31 L 36 31 L 36 43 L 24.5625 43 Z M 24.5625 31 " clip-rule="nonzero"/></clipPath><clipPath id="bd7a13eafc"><path d="M 127 12 L 155.8125 12 L 155.8125 42 L 127 42 Z M 127 12 " clip-rule="nonzero"/></clipPath><clipPath id="9e9f0b92b7"><path d="M 24.5625 48 L 155.8125 48 L 155.8125 51 L 24.5625 51 Z M 24.5625 48 " clip-rule="nonzero"/></clipPath><mask id="84492f00d6"><g filter="url(#1897aa6b55)"><rect x="-18" width="216" fill="#000000" y="-7.2" height="86.4" fill-opacity="0.4"/></g></mask><clipPath id="e627bcacf6"><path d="M 0.5625 0.238281 L 131.8125 0.238281 L 131.8125 2 L 0.5625 2 Z M 0.5625 0.238281 " clip-rule="nonzero"/></clipPath><clipPath id="0aee1b9405"><rect x="0" width="132" y="0" height="3"/></clipPath><clipPath id="6094c13ba7"><path d="M 152 56 L 155.8125 56 L 155.8125 61 L 152 61 Z M 152 56 " clip-rule="nonzero"/></clipPath><clipPath id="be864cd07d"><path d="M 24.5625 54 L 30 54 L 30 61 L 24.5625 61 Z M 24.5625 54 " clip-rule="nonzero"/></clipPath></defs><g clip-path="url(#d0c18f5a70)"><path fill="#ffffff" d="M 57.632812 9.824219 L 24.566406 9.824219 L 24.566406 31.917969 L 35.542969 31.917969 L 35.542969 42.890625 L 57.632812 42.890625 L 57.632812 31.777344 L 46.65625 20.800781 L 57.632812 20.800781 Z M 46.65625 20.800781 L 46.65625 31.917969 L 35.542969 31.917969 L 35.542969 20.800781 Z M 46.65625 20.800781 " fill-opacity="1" fill-rule="evenodd"/></g><g clip-path="url(#393d249134)"><path fill="#d9d9d9" d="M 24.566406 31.917969 L 35.542969 31.917969 L 35.542969 42.894531 Z M 24.566406 31.917969 " fill-opacity="1" fill-rule="nonzero"/></g><g clip-path="url(#bd7a13eafc)"><path fill="#ffffff" d="M 127.78125 41.109375 L 137.59375 12.089844 L 145.617188 12.089844 L 155.433594 41.109375 L 148.851562 41.109375 L 146.902344 35.1875 L 136.269531 35.1875 L 134.324219 41.109375 Z M 137.945312 29.929688 L 145.230469 29.929688 L 140.789062 16.21875 L 142.425781 16.21875 Z M 137.945312 29.929688 " fill-opacity="1" fill-rule="nonzero"/></g><path fill="#ffffff" d="M 118.742188 12.089844 L 124.777344 12.089844 L 124.777344 41.109375 L 118.742188 41.109375 Z M 118.742188 12.089844 " fill-opacity="1" fill-rule="nonzero"/><path fill="#ffffff" d="M 102.46875 41.109375 L 102.46875 17.347656 L 95.109375 17.347656 L 95.109375 12.089844 L 115.75 12.089844 L 115.75 17.347656 L 108.507812 17.347656 L 108.507812 41.109375 Z M 102.46875 41.109375 " fill-opacity="1" fill-rule="nonzero"/><path fill="#ffffff" d="M 80.269531 41.574219 C 78.191406 41.574219 76.257812 41.199219 74.464844 40.445312 C 72.675781 39.695312 71.105469 38.640625 69.753906 37.292969 C 68.402344 35.941406 67.351562 34.359375 66.597656 32.539062 C 65.847656 30.722656 65.46875 28.734375 65.46875 26.582031 C 65.46875 24.425781 65.832031 22.4375 66.558594 20.621094 C 67.289062 18.777344 68.3125 17.195312 69.636719 15.871094 C 70.960938 14.519531 72.507812 13.480469 74.273438 12.753906 C 76.0625 12 78.011719 11.625 80.113281 11.625 C 82.21875 11.625 84.101562 11.976562 85.761719 12.675781 C 87.449219 13.378906 88.878906 14.3125 90.046875 15.480469 C 91.214844 16.648438 92.046875 17.945312 92.539062 19.375 L 87.203125 21.945312 C 86.710938 20.542969 85.839844 19.386719 84.59375 18.480469 C 83.371094 17.542969 81.878906 17.078125 80.113281 17.078125 C 78.402344 17.078125 76.894531 17.480469 75.597656 18.285156 C 74.296875 19.089844 73.285156 20.207031 72.558594 21.632812 C 71.855469 23.035156 71.507812 24.683594 71.507812 26.582031 C 71.507812 28.476562 71.882812 30.136719 72.636719 31.566406 C 73.390625 32.996094 74.414062 34.109375 75.714844 34.914062 C 77.039062 35.722656 78.554688 36.125 80.269531 36.125 C 81.59375 36.125 82.828125 35.875 83.96875 35.382812 C 85.136719 34.863281 86.074219 34.125 86.773438 33.164062 C 87.5 32.203125 87.863281 31.046875 87.863281 29.695312 L 87.863281 27.28125 L 90.628906 29.617188 L 80.113281 29.617188 L 80.113281 24.554688 L 93.902344 24.554688 L 93.902344 27.632812 C 93.902344 29.996094 93.511719 32.058594 92.734375 33.824219 C 91.953125 35.566406 90.902344 37.019531 89.578125 38.1875 C 88.28125 39.328125 86.8125 40.1875 85.175781 40.757812 C 83.566406 41.304688 81.933594 41.574219 80.269531 41.574219 Z M 80.269531 41.574219 " fill-opacity="1" fill-rule="nonzero"/><g clip-path="url(#9e9f0b92b7)"><g mask="url(#84492f00d6)"><g transform="matrix(1, 0, 0, 1, 24, 48)"><g clip-path="url(#0aee1b9405)"><g clip-path="url(#e627bcacf6)"><path stroke-linecap="butt" transform="matrix(0.769818, 0, 0, 0.769818, 0.565429, -38.174998)" fill="none" stroke-linejoin="miter" d="M 169.998739 51.441713 L 0.00126989 51.441713 " stroke="#ffffff" stroke-width="1.25" stroke-opacity="1" stroke-miterlimit="4"/></g></g></g></g></g><g clip-path="url(#6094c13ba7)"><path fill="#ffffff" d="M 152.046875 60.238281 L 152.046875 56.457031 L 152.996094 56.457031 L 152.996094 57.203125 L 152.941406 57.039062 C 153.027344 56.8125 153.164062 56.644531 153.355469 56.539062 C 153.546875 56.429688 153.773438 56.375 154.03125 56.375 C 154.3125 56.375 154.554688 56.433594 154.761719 56.554688 C 154.976562 56.671875 155.140625 56.839844 155.257812 57.058594 C 155.375 57.269531 155.433594 57.519531 155.433594 57.808594 L 155.433594 60.238281 L 154.417969 60.238281 L 154.417969 58.027344 C 154.417969 57.878906 154.386719 57.753906 154.328125 57.648438 C 154.273438 57.542969 154.195312 57.457031 154.09375 57.398438 C 153.992188 57.339844 153.875 57.308594 153.738281 57.308594 C 153.609375 57.308594 153.492188 57.339844 153.386719 57.398438 C 153.285156 57.457031 153.203125 57.542969 153.144531 57.648438 C 153.089844 57.753906 153.0625 57.878906 153.0625 58.027344 L 153.0625 60.238281 Z M 152.046875 60.238281 " fill-opacity="1" fill-rule="nonzero"/></g><path fill="#ffffff" d="M 149.46875 60.320312 C 149.105469 60.320312 148.769531 60.234375 148.464844 60.066406 C 148.167969 59.894531 147.929688 59.660156 147.746094 59.363281 C 147.570312 59.066406 147.484375 58.726562 147.484375 58.347656 C 147.484375 57.964844 147.570312 57.625 147.746094 57.328125 C 147.929688 57.035156 148.167969 56.800781 148.464844 56.628906 C 148.769531 56.457031 149.105469 56.375 149.46875 56.375 C 149.835938 56.375 150.167969 56.457031 150.464844 56.628906 C 150.765625 56.800781 151 57.035156 151.175781 57.328125 C 151.359375 57.625 151.449219 57.964844 151.449219 58.347656 C 151.449219 58.726562 151.359375 59.066406 151.175781 59.363281 C 151 59.660156 150.765625 59.894531 150.464844 60.066406 C 150.167969 60.234375 149.835938 60.320312 149.46875 60.320312 Z M 149.46875 59.386719 C 149.65625 59.386719 149.816406 59.34375 149.949219 59.253906 C 150.089844 59.167969 150.199219 59.042969 150.277344 58.886719 C 150.359375 58.730469 150.398438 58.550781 150.398438 58.347656 C 150.398438 58.144531 150.359375 57.964844 150.277344 57.8125 C 150.199219 57.65625 150.089844 57.535156 149.949219 57.445312 C 149.816406 57.355469 149.65625 57.308594 149.46875 57.308594 C 149.285156 57.308594 149.121094 57.355469 148.980469 57.445312 C 148.84375 57.535156 148.730469 57.65625 148.648438 57.8125 C 148.574219 57.964844 148.535156 58.144531 148.535156 58.347656 C 148.535156 58.550781 148.574219 58.730469 148.648438 58.886719 C 148.730469 59.042969 148.84375 59.167969 148.980469 59.253906 C 149.121094 59.34375 149.285156 59.386719 149.46875 59.386719 Z M 149.46875 59.386719 " fill-opacity="1" fill-rule="nonzero"/><path fill="#ffffff" d="M 145.867188 60.238281 L 145.867188 56.457031 L 146.886719 56.457031 L 146.886719 60.238281 Z M 145.867188 56.117188 L 145.867188 55.078125 L 146.886719 55.078125 L 146.886719 56.117188 Z M 145.867188 56.117188 " fill-opacity="1" fill-rule="nonzero"/><path fill="#ffffff" d="M 144.800781 60.28125 C 144.355469 60.28125 144.003906 60.15625 143.757812 59.914062 C 143.511719 59.664062 143.390625 59.316406 143.390625 58.875 L 143.390625 57.355469 L 142.769531 57.355469 L 142.769531 56.457031 L 142.800781 56.457031 C 142.992188 56.457031 143.136719 56.410156 143.234375 56.3125 C 143.339844 56.214844 143.390625 56.070312 143.390625 55.875 L 143.390625 55.597656 L 144.410156 55.597656 L 144.410156 56.457031 L 145.273438 56.457031 L 145.273438 57.355469 L 144.410156 57.355469 L 144.410156 58.804688 C 144.410156 58.933594 144.429688 59.042969 144.476562 59.128906 C 144.519531 59.214844 144.589844 59.277344 144.6875 59.316406 C 144.78125 59.359375 144.898438 59.378906 145.039062 59.378906 C 145.070312 59.378906 145.105469 59.378906 145.148438 59.371094 C 145.1875 59.367188 145.230469 59.363281 145.273438 59.359375 L 145.273438 60.238281 C 145.207031 60.246094 145.132812 60.257812 145.046875 60.265625 C 144.960938 60.273438 144.878906 60.28125 144.800781 60.28125 Z M 144.800781 60.28125 " fill-opacity="1" fill-rule="nonzero"/><path fill="#ffffff" d="M 140.277344 60.320312 C 140.011719 60.320312 139.78125 60.277344 139.585938 60.1875 C 139.394531 60.101562 139.246094 59.976562 139.140625 59.816406 C 139.035156 59.648438 138.984375 59.453125 138.984375 59.226562 C 138.984375 59.015625 139.03125 58.828125 139.128906 58.664062 C 139.222656 58.5 139.367188 58.359375 139.5625 58.25 C 139.757812 58.140625 140.003906 58.0625 140.300781 58.015625 L 141.429688 57.828125 L 141.429688 58.589844 L 140.484375 58.761719 C 140.339844 58.789062 140.226562 58.839844 140.152344 58.90625 C 140.074219 58.972656 140.035156 59.066406 140.035156 59.191406 C 140.035156 59.308594 140.078125 59.398438 140.164062 59.460938 C 140.25 59.527344 140.355469 59.558594 140.484375 59.558594 C 140.648438 59.558594 140.796875 59.523438 140.921875 59.449219 C 141.050781 59.375 141.148438 59.273438 141.214844 59.148438 C 141.285156 59.019531 141.324219 58.878906 141.324219 58.726562 L 141.324219 57.746094 C 141.324219 57.601562 141.265625 57.480469 141.152344 57.382812 C 141.046875 57.289062 140.898438 57.238281 140.707031 57.238281 C 140.527344 57.238281 140.367188 57.289062 140.226562 57.390625 C 140.089844 57.492188 139.992188 57.625 139.925781 57.792969 L 139.113281 57.398438 C 139.1875 57.1875 139.300781 57.003906 139.460938 56.851562 C 139.617188 56.699219 139.808594 56.582031 140.027344 56.496094 C 140.25 56.414062 140.492188 56.375 140.753906 56.375 C 141.066406 56.375 141.339844 56.429688 141.582031 56.546875 C 141.820312 56.660156 142.003906 56.824219 142.136719 57.03125 C 142.273438 57.234375 142.339844 57.472656 142.339844 57.746094 L 142.339844 60.238281 L 141.390625 60.238281 L 141.390625 59.628906 L 141.621094 59.585938 C 141.511719 59.753906 141.394531 59.890625 141.261719 60.003906 C 141.132812 60.109375 140.984375 60.1875 140.820312 60.238281 C 140.660156 60.292969 140.480469 60.320312 140.277344 60.320312 Z M 140.277344 60.320312 " fill-opacity="1" fill-rule="nonzero"/><path fill="#ffffff" d="M 137.371094 60.238281 L 137.371094 56.457031 L 138.386719 56.457031 L 138.386719 60.238281 Z M 137.371094 56.117188 L 137.371094 55.078125 L 138.386719 55.078125 L 138.386719 56.117188 Z M 137.371094 56.117188 " fill-opacity="1" fill-rule="nonzero"/><path fill="#ffffff" d="M 135.042969 60.320312 C 134.675781 60.320312 134.339844 60.234375 134.042969 60.066406 C 133.746094 59.890625 133.511719 59.652344 133.335938 59.351562 C 133.164062 59.050781 133.078125 58.714844 133.078125 58.339844 C 133.078125 57.964844 133.164062 57.632812 133.335938 57.335938 C 133.507812 57.035156 133.742188 56.800781 134.042969 56.628906 C 134.339844 56.457031 134.675781 56.375 135.042969 56.375 C 135.320312 56.375 135.574219 56.421875 135.808594 56.519531 C 136.046875 56.617188 136.246094 56.75 136.414062 56.925781 C 136.582031 57.097656 136.699219 57.300781 136.773438 57.535156 L 135.890625 57.925781 C 135.828125 57.734375 135.71875 57.585938 135.566406 57.472656 C 135.417969 57.363281 135.242188 57.308594 135.042969 57.308594 C 134.867188 57.308594 134.710938 57.351562 134.570312 57.441406 C 134.433594 57.527344 134.324219 57.648438 134.246094 57.808594 C 134.167969 57.964844 134.128906 58.144531 134.128906 58.347656 C 134.128906 58.550781 134.167969 58.730469 134.246094 58.886719 C 134.324219 59.042969 134.433594 59.167969 134.570312 59.253906 C 134.710938 59.34375 134.867188 59.386719 135.042969 59.386719 C 135.246094 59.386719 135.425781 59.332031 135.574219 59.21875 C 135.722656 59.109375 135.828125 58.957031 135.890625 58.769531 L 136.773438 59.164062 C 136.703125 59.386719 136.585938 59.585938 136.421875 59.761719 C 136.253906 59.933594 136.050781 60.074219 135.816406 60.175781 C 135.582031 60.273438 135.324219 60.320312 135.042969 60.320312 Z M 135.042969 60.320312 " fill-opacity="1" fill-rule="nonzero"/><path fill="#ffffff" d="M 130.648438 60.320312 C 130.285156 60.320312 129.949219 60.234375 129.648438 60.066406 C 129.347656 59.894531 129.109375 59.660156 128.929688 59.363281 C 128.753906 59.066406 128.664062 58.726562 128.664062 58.347656 C 128.664062 57.964844 128.753906 57.625 128.929688 57.328125 C 129.109375 57.035156 129.347656 56.800781 129.648438 56.628906 C 129.949219 56.457031 130.285156 56.375 130.648438 56.375 C 131.015625 56.375 131.347656 56.457031 131.644531 56.628906 C 131.945312 56.800781 132.179688 57.035156 132.359375 57.328125 C 132.539062 57.625 132.628906 57.964844 132.628906 58.347656 C 132.628906 58.726562 132.539062 59.066406 132.359375 59.363281 C 132.179688 59.660156 131.945312 59.894531 131.644531 60.066406 C 131.347656 60.234375 131.015625 60.320312 130.648438 60.320312 Z M 130.648438 59.386719 C 130.835938 59.386719 130.996094 59.34375 131.132812 59.253906 C 131.273438 59.167969 131.378906 59.042969 131.457031 58.886719 C 131.539062 58.730469 131.578125 58.550781 131.578125 58.347656 C 131.578125 58.144531 131.539062 57.964844 131.457031 57.8125 C 131.378906 57.65625 131.273438 57.535156 131.132812 57.445312 C 130.996094 57.355469 130.835938 57.308594 130.648438 57.308594 C 130.464844 57.308594 130.300781 57.355469 130.164062 57.445312 C 130.023438 57.535156 129.910156 57.65625 129.828125 57.8125 C 129.753906 57.964844 129.714844 58.144531 129.714844 58.347656 C 129.714844 58.550781 129.753906 58.730469 129.828125 58.886719 C 129.910156 59.042969 130.023438 59.167969 130.164062 59.253906 C 130.300781 59.34375 130.464844 59.386719 130.648438 59.386719 Z M 130.648438 59.386719 " fill-opacity="1" fill-rule="nonzero"/><path fill="#ffffff" d="M 126.773438 60.320312 C 126.367188 60.320312 126.011719 60.222656 125.710938 60.03125 C 125.414062 59.832031 125.210938 59.566406 125.101562 59.234375 L 125.847656 58.875 C 125.941406 59.078125 126.070312 59.234375 126.230469 59.351562 C 126.394531 59.464844 126.574219 59.523438 126.773438 59.523438 C 126.917969 59.523438 127.03125 59.496094 127.105469 59.433594 C 127.183594 59.375 127.222656 59.292969 127.222656 59.183594 C 127.222656 59.128906 127.207031 59.082031 127.179688 59.046875 C 127.152344 59.003906 127.113281 58.96875 127.058594 58.9375 C 127.003906 58.902344 126.9375 58.875 126.855469 58.851562 L 126.226562 58.671875 C 125.921875 58.585938 125.691406 58.445312 125.527344 58.25 C 125.363281 58.050781 125.28125 57.816406 125.28125 57.550781 C 125.28125 57.316406 125.34375 57.109375 125.460938 56.933594 C 125.578125 56.757812 125.742188 56.621094 125.953125 56.527344 C 126.167969 56.425781 126.410156 56.375 126.6875 56.375 C 127.046875 56.375 127.363281 56.460938 127.636719 56.636719 C 127.910156 56.808594 128.105469 57.050781 128.21875 57.363281 L 127.464844 57.722656 C 127.410156 57.566406 127.3125 57.441406 127.167969 57.351562 C 127.027344 57.253906 126.867188 57.203125 126.6875 57.203125 C 126.554688 57.203125 126.453125 57.230469 126.375 57.289062 C 126.300781 57.34375 126.265625 57.417969 126.265625 57.515625 C 126.265625 57.566406 126.28125 57.613281 126.308594 57.65625 C 126.332031 57.695312 126.378906 57.734375 126.433594 57.765625 C 126.5 57.796875 126.574219 57.828125 126.664062 57.855469 L 127.253906 58.035156 C 127.5625 58.128906 127.796875 58.269531 127.960938 58.457031 C 128.121094 58.640625 128.203125 58.871094 128.203125 59.144531 C 128.203125 59.378906 128.144531 59.585938 128.019531 59.761719 C 127.90625 59.933594 127.738281 60.074219 127.527344 60.175781 C 127.316406 60.273438 127.0625 60.320312 126.773438 60.320312 Z M 126.773438 60.320312 " fill-opacity="1" fill-rule="nonzero"/><path fill="#ffffff" d="M 123.289062 60.320312 C 122.882812 60.320312 122.527344 60.222656 122.226562 60.03125 C 121.925781 59.832031 121.722656 59.566406 121.613281 59.234375 L 122.359375 58.875 C 122.457031 59.078125 122.585938 59.234375 122.746094 59.351562 C 122.910156 59.464844 123.089844 59.523438 123.289062 59.523438 C 123.433594 59.523438 123.542969 59.496094 123.621094 59.433594 C 123.699219 59.375 123.738281 59.292969 123.738281 59.183594 C 123.738281 59.128906 123.722656 59.082031 123.695312 59.046875 C 123.667969 59.003906 123.628906 58.96875 123.574219 58.9375 C 123.519531 58.902344 123.453125 58.875 123.371094 58.851562 L 122.742188 58.671875 C 122.4375 58.585938 122.203125 58.445312 122.042969 58.25 C 121.878906 58.050781 121.796875 57.816406 121.796875 57.550781 C 121.796875 57.316406 121.855469 57.109375 121.972656 56.933594 C 122.09375 56.757812 122.257812 56.621094 122.46875 56.527344 C 122.683594 56.425781 122.925781 56.375 123.203125 56.375 C 123.5625 56.375 123.878906 56.460938 124.148438 56.636719 C 124.425781 56.808594 124.621094 57.050781 124.734375 57.363281 L 123.980469 57.722656 C 123.925781 57.566406 123.828125 57.441406 123.683594 57.351562 C 123.542969 57.253906 123.382812 57.203125 123.203125 57.203125 C 123.070312 57.203125 122.964844 57.230469 122.890625 57.289062 C 122.816406 57.34375 122.78125 57.417969 122.78125 57.515625 C 122.78125 57.566406 122.792969 57.613281 122.820312 57.65625 C 122.847656 57.695312 122.890625 57.734375 122.949219 57.765625 C 123.011719 57.796875 123.089844 57.828125 123.179688 57.855469 L 123.769531 58.035156 C 124.078125 58.128906 124.3125 58.269531 124.476562 58.457031 C 124.636719 58.640625 124.71875 58.871094 124.71875 59.144531 C 124.71875 59.378906 124.65625 59.585938 124.535156 59.761719 C 124.417969 59.933594 124.253906 60.074219 124.042969 60.175781 C 123.828125 60.273438 123.578125 60.320312 123.289062 60.320312 Z M 123.289062 60.320312 " fill-opacity="1" fill-rule="nonzero"/><path fill="#ffffff" d="M 116.574219 60.238281 L 118.285156 55.078125 L 119.679688 55.078125 L 121.386719 60.238281 L 120.242188 60.238281 L 119.902344 59.1875 L 118.054688 59.1875 L 117.714844 60.238281 Z M 118.34375 58.25 L 119.613281 58.25 L 118.839844 55.8125 L 119.125 55.8125 Z M 118.34375 58.25 " fill-opacity="1" fill-rule="nonzero"/><path fill="#ffffff" d="M 112.15625 61.765625 C 112.046875 61.765625 111.941406 61.753906 111.835938 61.738281 C 111.738281 61.71875 111.648438 61.6875 111.570312 61.648438 L 111.570312 60.792969 C 111.636719 60.8125 111.710938 60.828125 111.796875 60.84375 C 111.882812 60.855469 111.960938 60.863281 112.03125 60.863281 C 112.230469 60.863281 112.375 60.816406 112.460938 60.71875 C 112.546875 60.625 112.613281 60.519531 112.667969 60.398438 L 112.921875 59.8125 L 112.90625 60.675781 L 111.28125 56.460938 L 112.371094 56.460938 L 113.449219 59.457031 L 113.042969 59.457031 L 114.121094 56.460938 L 115.210938 56.460938 L 113.625 60.59375 C 113.527344 60.851562 113.402344 61.070312 113.257812 61.246094 C 113.113281 61.421875 112.949219 61.550781 112.765625 61.632812 C 112.582031 61.71875 112.378906 61.765625 112.15625 61.765625 Z M 112.15625 61.765625 " fill-opacity="1" fill-rule="nonzero"/><path fill="#ffffff" d="M 108.964844 60.238281 L 108.964844 56.457031 L 109.914062 56.457031 L 109.914062 57.363281 L 109.847656 57.234375 C 109.925781 56.914062 110.0625 56.699219 110.246094 56.589844 C 110.4375 56.472656 110.660156 56.417969 110.917969 56.417969 L 111.132812 56.417969 L 111.132812 57.316406 L 110.816406 57.316406 C 110.566406 57.316406 110.367188 57.394531 110.210938 57.550781 C 110.058594 57.703125 109.980469 57.921875 109.980469 58.203125 L 109.980469 60.238281 Z M 108.964844 60.238281 " fill-opacity="1" fill-rule="nonzero"/><path fill="#ffffff" d="M 107.894531 60.28125 C 107.445312 60.28125 107.097656 60.15625 106.847656 59.914062 C 106.605469 59.664062 106.484375 59.316406 106.484375 58.875 L 106.484375 57.355469 L 105.859375 57.355469 L 105.859375 56.457031 L 105.894531 56.457031 C 106.082031 56.457031 106.226562 56.410156 106.328125 56.3125 C 106.429688 56.214844 106.484375 56.070312 106.484375 55.875 L 106.484375 55.597656 L 107.5 55.597656 L 107.5 56.457031 L 108.367188 56.457031 L 108.367188 57.355469 L 107.5 57.355469 L 107.5 58.804688 C 107.5 58.933594 107.523438 59.042969 107.566406 59.128906 C 107.613281 59.214844 107.683594 59.277344 107.777344 59.316406 C 107.871094 59.359375 107.988281 59.378906 108.128906 59.378906 C 108.160156 59.378906 108.199219 59.378906 108.238281 59.371094 C 108.28125 59.367188 108.320312 59.363281 108.367188 59.359375 L 108.367188 60.238281 C 108.300781 60.246094 108.222656 60.257812 108.136719 60.265625 C 108.050781 60.273438 107.96875 60.28125 107.894531 60.28125 Z M 107.894531 60.28125 " fill-opacity="1" fill-rule="nonzero"/><path fill="#ffffff" d="M 104.074219 60.320312 C 103.667969 60.320312 103.3125 60.222656 103.007812 60.03125 C 102.710938 59.832031 102.507812 59.566406 102.398438 59.234375 L 103.144531 58.875 C 103.238281 59.078125 103.367188 59.234375 103.53125 59.351562 C 103.695312 59.464844 103.875 59.523438 104.074219 59.523438 C 104.21875 59.523438 104.328125 59.496094 104.40625 59.433594 C 104.484375 59.375 104.519531 59.292969 104.519531 59.183594 C 104.519531 59.128906 104.507812 59.082031 104.480469 59.046875 C 104.453125 59.003906 104.414062 58.96875 104.359375 58.9375 C 104.304688 58.902344 104.234375 58.875 104.15625 58.851562 L 103.523438 58.671875 C 103.222656 58.585938 102.988281 58.445312 102.828125 58.25 C 102.664062 58.050781 102.582031 57.816406 102.582031 57.550781 C 102.582031 57.316406 102.640625 57.109375 102.757812 56.933594 C 102.875 56.757812 103.039062 56.621094 103.253906 56.527344 C 103.464844 56.425781 103.710938 56.375 103.984375 56.375 C 104.347656 56.375 104.664062 56.460938 104.933594 56.636719 C 105.210938 56.808594 105.402344 57.050781 105.515625 57.363281 L 104.765625 57.722656 C 104.710938 57.566406 104.609375 57.441406 104.464844 57.351562 C 104.328125 57.253906 104.167969 57.203125 103.984375 57.203125 C 103.855469 57.203125 103.75 57.230469 103.671875 57.289062 C 103.601562 57.34375 103.566406 57.417969 103.566406 57.515625 C 103.566406 57.566406 103.578125 57.613281 103.605469 57.65625 C 103.632812 57.695312 103.675781 57.734375 103.734375 57.765625 C 103.796875 57.796875 103.875 57.828125 103.964844 57.855469 L 104.554688 58.035156 C 104.863281 58.128906 105.097656 58.269531 105.257812 58.457031 C 105.421875 58.640625 105.503906 58.871094 105.503906 59.144531 C 105.503906 59.378906 105.441406 59.585938 105.320312 59.761719 C 105.203125 59.933594 105.039062 60.074219 104.824219 60.175781 C 104.613281 60.273438 104.363281 60.320312 104.074219 60.320312 Z M 104.074219 60.320312 " fill-opacity="1" fill-rule="nonzero"/><path fill="#ffffff" d="M 99.894531 60.324219 C 99.597656 60.324219 99.339844 60.257812 99.128906 60.128906 C 98.921875 59.996094 98.761719 59.8125 98.65625 59.574219 C 98.546875 59.339844 98.492188 59.066406 98.492188 58.75 L 98.492188 56.460938 L 99.507812 56.460938 L 99.507812 58.667969 C 99.507812 58.8125 99.535156 58.9375 99.589844 59.050781 C 99.648438 59.15625 99.730469 59.238281 99.832031 59.300781 C 99.9375 59.359375 100.054688 59.390625 100.1875 59.390625 C 100.320312 59.390625 100.4375 59.359375 100.539062 59.300781 C 100.640625 59.238281 100.722656 59.15625 100.777344 59.050781 C 100.835938 58.9375 100.863281 58.8125 100.863281 58.667969 L 100.863281 56.460938 L 101.878906 56.460938 L 101.878906 60.242188 L 100.933594 60.242188 L 100.933594 59.492188 L 100.984375 59.660156 C 100.898438 59.886719 100.761719 60.054688 100.566406 60.164062 C 100.375 60.269531 100.152344 60.324219 99.894531 60.324219 Z M 99.894531 60.324219 " fill-opacity="1" fill-rule="nonzero"/><path fill="#ffffff" d="M 95.746094 60.324219 C 95.382812 60.324219 95.0625 60.234375 94.777344 60.058594 C 94.492188 59.882812 94.265625 59.648438 94.097656 59.347656 C 93.9375 59.046875 93.855469 58.714844 93.855469 58.347656 C 93.855469 57.980469 93.9375 57.648438 94.105469 57.351562 C 94.273438 57.050781 94.5 56.8125 94.785156 56.640625 C 95.066406 56.464844 95.386719 56.375 95.738281 56.375 C 96.011719 56.375 96.25 56.429688 96.457031 56.535156 C 96.667969 56.636719 96.835938 56.78125 96.957031 56.972656 L 96.804688 57.179688 L 96.804688 54.996094 L 97.820312 54.996094 L 97.820312 60.238281 L 96.871094 60.238281 L 96.871094 59.546875 L 96.964844 59.761719 C 96.839844 59.945312 96.667969 60.085938 96.449219 60.183594 C 96.234375 60.277344 96 60.324219 95.746094 60.324219 Z M 95.867188 59.386719 C 96.054688 59.386719 96.214844 59.34375 96.355469 59.257812 C 96.496094 59.167969 96.605469 59.046875 96.679688 58.890625 C 96.761719 58.734375 96.804688 58.550781 96.804688 58.347656 C 96.804688 58.144531 96.761719 57.964844 96.679688 57.808594 C 96.605469 57.652344 96.496094 57.53125 96.355469 57.441406 C 96.214844 57.355469 96.054688 57.3125 95.867188 57.3125 C 95.683594 57.3125 95.515625 57.355469 95.367188 57.449219 C 95.222656 57.535156 95.109375 57.660156 95.027344 57.816406 C 94.945312 57.96875 94.90625 58.144531 94.90625 58.347656 C 94.90625 58.550781 94.945312 58.734375 95.027344 58.890625 C 95.109375 59.046875 95.222656 59.167969 95.367188 59.257812 C 95.515625 59.34375 95.683594 59.386719 95.867188 59.386719 Z M 95.867188 59.386719 " fill-opacity="1" fill-rule="nonzero"/><path fill="#ffffff" d="M 89.949219 60.238281 L 89.949219 56.457031 L 90.894531 56.457031 L 90.894531 57.203125 L 90.84375 57.039062 C 90.929688 56.8125 91.066406 56.644531 91.253906 56.539062 C 91.449219 56.429688 91.675781 56.375 91.933594 56.375 C 92.214844 56.375 92.457031 56.433594 92.664062 56.554688 C 92.878906 56.671875 93.042969 56.839844 93.160156 57.058594 C 93.277344 57.269531 93.335938 57.519531 93.335938 57.808594 L 93.335938 60.238281 L 92.320312 60.238281 L 92.320312 58.027344 C 92.320312 57.878906 92.289062 57.753906 92.230469 57.648438 C 92.175781 57.542969 92.097656 57.457031 91.996094 57.398438 C 91.894531 57.339844 91.777344 57.308594 91.640625 57.308594 C 91.511719 57.308594 91.394531 57.339844 91.289062 57.398438 C 91.183594 57.457031 91.105469 57.542969 91.046875 57.648438 C 90.992188 57.753906 90.964844 57.878906 90.964844 58.027344 L 90.964844 60.238281 Z M 89.949219 60.238281 " fill-opacity="1" fill-rule="nonzero"/><path fill="#ffffff" d="M 88.078125 55.078125 L 89.128906 55.078125 L 89.128906 60.238281 L 88.078125 60.238281 Z M 88.078125 55.078125 " fill-opacity="1" fill-rule="nonzero"/><path fill="#ffffff" d="M 83.28125 61.765625 C 83.171875 61.765625 83.066406 61.753906 82.964844 61.738281 C 82.863281 61.71875 82.777344 61.6875 82.699219 61.648438 L 82.699219 60.792969 C 82.761719 60.8125 82.835938 60.828125 82.921875 60.84375 C 83.007812 60.855469 83.085938 60.863281 83.160156 60.863281 C 83.359375 60.863281 83.5 60.816406 83.585938 60.71875 C 83.671875 60.625 83.742188 60.519531 83.796875 60.398438 L 84.046875 59.8125 L 84.035156 60.675781 L 82.40625 56.460938 L 83.5 56.460938 L 84.578125 59.457031 L 84.171875 59.457031 L 85.246094 56.460938 L 86.339844 56.460938 L 84.753906 60.59375 C 84.652344 60.851562 84.53125 61.070312 84.386719 61.246094 C 84.242188 61.421875 84.078125 61.550781 83.890625 61.632812 C 83.710938 61.71875 83.507812 61.765625 83.28125 61.765625 Z M 83.28125 61.765625 " fill-opacity="1" fill-rule="nonzero"/><path fill="#ffffff" d="M 80.128906 61.761719 C 79.84375 61.761719 79.582031 61.714844 79.335938 61.617188 C 79.09375 61.519531 78.882812 61.382812 78.707031 61.207031 C 78.535156 61.035156 78.410156 60.832031 78.332031 60.597656 L 79.277344 60.257812 C 79.324219 60.433594 79.425781 60.574219 79.582031 60.675781 C 79.734375 60.777344 79.917969 60.828125 80.128906 60.828125 C 80.296875 60.828125 80.441406 60.792969 80.5625 60.730469 C 80.6875 60.667969 80.777344 60.578125 80.839844 60.460938 C 80.910156 60.339844 80.941406 60.199219 80.941406 60.035156 L 80.941406 59.171875 L 81.140625 59.421875 C 81.011719 59.632812 80.851562 59.792969 80.652344 59.898438 C 80.453125 60 80.21875 60.050781 79.953125 60.050781 C 79.609375 60.050781 79.304688 59.972656 79.03125 59.816406 C 78.761719 59.652344 78.546875 59.433594 78.394531 59.15625 C 78.242188 58.875 78.164062 58.558594 78.164062 58.203125 C 78.164062 57.847656 78.242188 57.53125 78.394531 57.257812 C 78.546875 56.984375 78.757812 56.765625 79.023438 56.609375 C 79.292969 56.453125 79.59375 56.375 79.933594 56.375 C 80.199219 56.375 80.433594 56.429688 80.632812 56.539062 C 80.832031 56.644531 81 56.808594 81.140625 57.03125 L 81.011719 57.28125 L 81.011719 56.457031 L 81.960938 56.457031 L 81.960938 60.035156 C 81.960938 60.371094 81.878906 60.664062 81.722656 60.921875 C 81.566406 61.1875 81.347656 61.390625 81.070312 61.539062 C 80.800781 61.6875 80.488281 61.761719 80.128906 61.761719 Z M 80.097656 59.109375 C 80.269531 59.109375 80.417969 59.070312 80.542969 58.996094 C 80.667969 58.925781 80.765625 58.820312 80.835938 58.6875 C 80.90625 58.550781 80.941406 58.394531 80.941406 58.214844 C 80.941406 58.035156 80.90625 57.878906 80.835938 57.746094 C 80.761719 57.605469 80.664062 57.5 80.535156 57.425781 C 80.410156 57.347656 80.261719 57.308594 80.097656 57.308594 C 79.925781 57.308594 79.769531 57.347656 79.636719 57.425781 C 79.503906 57.5 79.398438 57.605469 79.324219 57.746094 C 79.25 57.878906 79.214844 58.035156 79.214844 58.214844 C 79.214844 58.390625 79.25 58.546875 79.324219 58.679688 C 79.398438 58.8125 79.503906 58.917969 79.636719 58.996094 C 79.769531 59.070312 79.925781 59.109375 80.097656 59.109375 Z M 80.097656 59.109375 " fill-opacity="1" fill-rule="nonzero"/><path fill="#ffffff" d="M 75.734375 60.320312 C 75.371094 60.320312 75.035156 60.234375 74.730469 60.066406 C 74.433594 59.894531 74.195312 59.660156 74.015625 59.363281 C 73.835938 59.066406 73.75 58.726562 73.75 58.347656 C 73.75 57.964844 73.835938 57.625 74.015625 57.328125 C 74.195312 57.035156 74.433594 56.800781 74.730469 56.628906 C 75.035156 56.457031 75.371094 56.375 75.734375 56.375 C 76.101562 56.375 76.433594 56.457031 76.730469 56.628906 C 77.03125 56.800781 77.265625 57.035156 77.445312 57.328125 C 77.625 57.625 77.714844 57.964844 77.714844 58.347656 C 77.714844 58.726562 77.625 59.066406 77.445312 59.363281 C 77.265625 59.660156 77.03125 59.894531 76.730469 60.066406 C 76.433594 60.234375 76.101562 60.320312 75.734375 60.320312 Z M 75.734375 59.386719 C 75.921875 59.386719 76.082031 59.34375 76.214844 59.253906 C 76.355469 59.167969 76.464844 59.042969 76.542969 58.886719 C 76.625 58.730469 76.664062 58.550781 76.664062 58.347656 C 76.664062 58.144531 76.625 57.964844 76.542969 57.8125 C 76.464844 57.65625 76.355469 57.535156 76.214844 57.445312 C 76.082031 57.355469 75.921875 57.308594 75.734375 57.308594 C 75.550781 57.308594 75.386719 57.355469 75.246094 57.445312 C 75.105469 57.535156 74.996094 57.65625 74.914062 57.8125 C 74.839844 57.964844 74.800781 58.144531 74.800781 58.347656 C 74.800781 58.550781 74.839844 58.730469 74.914062 58.886719 C 74.996094 59.042969 75.105469 59.167969 75.246094 59.253906 C 75.386719 59.34375 75.550781 59.386719 75.734375 59.386719 Z M 75.734375 59.386719 " fill-opacity="1" fill-rule="nonzero"/><path fill="#ffffff" d="M 72.136719 54.996094 L 73.152344 54.996094 L 73.152344 60.238281 L 72.136719 60.238281 Z M 72.136719 54.996094 " fill-opacity="1" fill-rule="nonzero"/><path fill="#ffffff" d="M 69.558594 60.320312 C 69.191406 60.320312 68.859375 60.234375 68.554688 60.066406 C 68.257812 59.894531 68.019531 59.660156 67.835938 59.363281 C 67.660156 59.066406 67.574219 58.726562 67.574219 58.347656 C 67.574219 57.964844 67.660156 57.625 67.835938 57.328125 C 68.019531 57.035156 68.257812 56.800781 68.554688 56.628906 C 68.859375 56.457031 69.191406 56.375 69.558594 56.375 C 69.925781 56.375 70.257812 56.457031 70.554688 56.628906 C 70.851562 56.800781 71.089844 57.035156 71.265625 57.328125 C 71.445312 57.625 71.539062 57.964844 71.539062 58.347656 C 71.539062 58.726562 71.445312 59.066406 71.265625 59.363281 C 71.089844 59.660156 70.851562 59.894531 70.554688 60.066406 C 70.257812 60.234375 69.925781 60.320312 69.558594 60.320312 Z M 69.558594 59.386719 C 69.742188 59.386719 69.902344 59.34375 70.039062 59.253906 C 70.179688 59.167969 70.289062 59.042969 70.363281 58.886719 C 70.445312 58.730469 70.488281 58.550781 70.488281 58.347656 C 70.488281 58.144531 70.445312 57.964844 70.363281 57.8125 C 70.289062 57.65625 70.179688 57.535156 70.039062 57.445312 C 69.902344 57.355469 69.742188 57.308594 69.558594 57.308594 C 69.375 57.308594 69.210938 57.355469 69.070312 57.445312 C 68.929688 57.535156 68.820312 57.65625 68.738281 57.8125 C 68.660156 57.964844 68.625 58.144531 68.625 58.347656 C 68.625 58.550781 68.660156 58.730469 68.738281 58.886719 C 68.820312 59.042969 68.929688 59.167969 69.070312 59.253906 C 69.210938 59.34375 69.375 59.386719 69.558594 59.386719 Z M 69.558594 59.386719 " fill-opacity="1" fill-rule="nonzero"/><path fill="#ffffff" d="M 63.664062 60.238281 L 63.664062 56.457031 L 64.613281 56.457031 L 64.613281 57.203125 L 64.558594 57.039062 C 64.644531 56.8125 64.785156 56.644531 64.972656 56.539062 C 65.167969 56.429688 65.394531 56.375 65.652344 56.375 C 65.929688 56.375 66.175781 56.433594 66.382812 56.554688 C 66.59375 56.671875 66.761719 56.839844 66.878906 57.058594 C 66.996094 57.269531 67.054688 57.519531 67.054688 57.808594 L 67.054688 60.238281 L 66.039062 60.238281 L 66.039062 58.027344 C 66.039062 57.878906 66.007812 57.753906 65.949219 57.648438 C 65.894531 57.542969 65.816406 57.457031 65.710938 57.398438 C 65.613281 57.339844 65.496094 57.308594 65.359375 57.308594 C 65.230469 57.308594 65.109375 57.339844 65.007812 57.398438 C 64.902344 57.457031 64.820312 57.542969 64.761719 57.648438 C 64.710938 57.753906 64.683594 57.878906 64.683594 58.027344 L 64.683594 60.238281 Z M 63.664062 60.238281 " fill-opacity="1" fill-rule="nonzero"/><path fill="#ffffff" d="M 59.605469 60.238281 L 59.605469 54.996094 L 60.621094 54.996094 L 60.621094 57.207031 L 60.5 57.039062 C 60.585938 56.8125 60.722656 56.648438 60.914062 56.542969 C 61.109375 56.429688 61.335938 56.375 61.59375 56.375 C 61.871094 56.375 62.117188 56.4375 62.324219 56.554688 C 62.535156 56.675781 62.703125 56.84375 62.820312 57.0625 C 62.9375 57.273438 62.996094 57.523438 62.996094 57.808594 L 62.996094 60.238281 L 61.976562 60.238281 L 61.976562 58.03125 C 61.976562 57.882812 61.949219 57.757812 61.890625 57.648438 C 61.835938 57.542969 61.757812 57.460938 61.652344 57.402344 C 61.554688 57.339844 61.4375 57.3125 61.300781 57.3125 C 61.167969 57.3125 61.050781 57.339844 60.949219 57.402344 C 60.84375 57.460938 60.761719 57.542969 60.703125 57.648438 C 60.648438 57.757812 60.621094 57.882812 60.621094 58.03125 L 60.621094 60.238281 Z M 59.605469 60.238281 " fill-opacity="1" fill-rule="nonzero"/><path fill="#ffffff" d="M 57.28125 60.320312 C 56.910156 60.320312 56.574219 60.234375 56.277344 60.066406 C 55.984375 59.890625 55.746094 59.652344 55.570312 59.351562 C 55.398438 59.050781 55.3125 58.714844 55.3125 58.339844 C 55.3125 57.964844 55.398438 57.632812 55.570312 57.335938 C 55.742188 57.035156 55.976562 56.800781 56.277344 56.628906 C 56.574219 56.457031 56.910156 56.375 57.28125 56.375 C 57.554688 56.375 57.8125 56.421875 58.046875 56.519531 C 58.28125 56.617188 58.480469 56.75 58.648438 56.925781 C 58.816406 57.097656 58.9375 57.300781 59.007812 57.535156 L 58.125 57.925781 C 58.0625 57.734375 57.957031 57.585938 57.800781 57.472656 C 57.652344 57.363281 57.480469 57.308594 57.28125 57.308594 C 57.101562 57.308594 56.945312 57.351562 56.804688 57.441406 C 56.667969 57.527344 56.5625 57.648438 56.480469 57.808594 C 56.402344 57.964844 56.363281 58.144531 56.363281 58.347656 C 56.363281 58.550781 56.402344 58.730469 56.480469 58.886719 C 56.5625 59.042969 56.667969 59.167969 56.804688 59.253906 C 56.945312 59.34375 57.101562 59.386719 57.28125 59.386719 C 57.484375 59.386719 57.660156 59.332031 57.808594 59.21875 C 57.957031 59.109375 58.0625 58.957031 58.125 58.769531 L 59.007812 59.164062 C 58.941406 59.386719 58.824219 59.585938 58.65625 59.761719 C 58.488281 59.933594 58.289062 60.074219 58.050781 60.175781 C 57.816406 60.273438 57.558594 60.320312 57.28125 60.320312 Z M 57.28125 60.320312 " fill-opacity="1" fill-rule="nonzero"/><path fill="#ffffff" d="M 53.101562 60.320312 C 52.707031 60.320312 52.367188 60.234375 52.078125 60.058594 C 51.789062 59.878906 51.566406 59.636719 51.40625 59.335938 C 51.25 59.039062 51.171875 58.703125 51.171875 58.339844 C 51.171875 57.960938 51.25 57.625 51.414062 57.328125 C 51.582031 57.035156 51.804688 56.800781 52.085938 56.628906 C 52.363281 56.457031 52.679688 56.375 53.035156 56.375 C 53.328125 56.375 53.585938 56.421875 53.8125 56.519531 C 54.039062 56.609375 54.230469 56.742188 54.382812 56.914062 C 54.539062 57.085938 54.660156 57.28125 54.742188 57.507812 C 54.824219 57.730469 54.863281 57.972656 54.863281 58.234375 C 54.863281 58.308594 54.859375 58.382812 54.851562 58.457031 C 54.847656 58.527344 54.835938 58.585938 54.816406 58.636719 L 52.042969 58.636719 L 52.042969 57.875 L 54.242188 57.875 L 53.757812 58.234375 C 53.804688 58.039062 53.800781 57.863281 53.753906 57.710938 C 53.703125 57.554688 53.613281 57.429688 53.488281 57.34375 C 53.367188 57.25 53.214844 57.203125 53.035156 57.203125 C 52.859375 57.203125 52.707031 57.25 52.578125 57.335938 C 52.453125 57.421875 52.359375 57.554688 52.296875 57.722656 C 52.230469 57.894531 52.207031 58.101562 52.21875 58.347656 C 52.203125 58.558594 52.226562 58.746094 52.296875 58.90625 C 52.363281 59.070312 52.46875 59.195312 52.605469 59.289062 C 52.746094 59.375 52.917969 59.421875 53.113281 59.421875 C 53.296875 59.421875 53.449219 59.382812 53.574219 59.308594 C 53.707031 59.234375 53.808594 59.132812 53.882812 59.003906 L 54.695312 59.398438 C 54.621094 59.585938 54.507812 59.746094 54.347656 59.882812 C 54.195312 60.023438 54.011719 60.132812 53.800781 60.210938 C 53.585938 60.285156 53.355469 60.320312 53.101562 60.320312 Z M 53.101562 60.320312 " fill-opacity="1" fill-rule="nonzero"/><path fill="#ffffff" d="M 49.039062 60.238281 L 49.039062 56.015625 L 47.757812 56.015625 L 47.757812 55.078125 L 51.351562 55.078125 L 51.351562 56.015625 L 50.089844 56.015625 L 50.089844 60.238281 Z M 49.039062 60.238281 " fill-opacity="1" fill-rule="nonzero"/><path fill="#ffffff" d="M 45.078125 54.996094 L 46.097656 54.996094 L 46.097656 60.238281 L 45.078125 60.238281 Z M 45.078125 54.996094 " fill-opacity="1" fill-rule="nonzero"/><path fill="#ffffff" d="M 42.273438 60.320312 C 42.007812 60.320312 41.777344 60.277344 41.582031 60.1875 C 41.386719 60.101562 41.238281 59.976562 41.136719 59.816406 C 41.03125 59.648438 40.980469 59.453125 40.980469 59.226562 C 40.980469 59.015625 41.027344 58.828125 41.121094 58.664062 C 41.214844 58.5 41.359375 58.359375 41.554688 58.25 C 41.753906 58.140625 42 58.0625 42.292969 58.015625 L 43.425781 57.828125 L 43.425781 58.589844 L 42.476562 58.761719 C 42.332031 58.789062 42.222656 58.839844 42.144531 58.90625 C 42.066406 58.972656 42.03125 59.066406 42.03125 59.191406 C 42.03125 59.308594 42.074219 59.398438 42.160156 59.460938 C 42.246094 59.527344 42.351562 59.558594 42.476562 59.558594 C 42.644531 59.558594 42.792969 59.523438 42.917969 59.449219 C 43.042969 59.375 43.140625 59.273438 43.210938 59.148438 C 43.28125 59.019531 43.316406 58.878906 43.316406 58.726562 L 43.316406 57.746094 C 43.316406 57.601562 43.261719 57.480469 43.148438 57.382812 C 43.039062 57.289062 42.890625 57.238281 42.699219 57.238281 C 42.519531 57.238281 42.359375 57.289062 42.21875 57.390625 C 42.085938 57.492188 41.984375 57.625 41.921875 57.792969 L 41.109375 57.398438 C 41.179688 57.1875 41.296875 57.003906 41.453125 56.851562 C 41.613281 56.699219 41.800781 56.582031 42.023438 56.496094 C 42.246094 56.414062 42.484375 56.375 42.75 56.375 C 43.058594 56.375 43.335938 56.429688 43.574219 56.546875 C 43.816406 56.660156 44 56.824219 44.132812 57.03125 C 44.265625 57.234375 44.335938 57.472656 44.335938 57.746094 L 44.335938 60.238281 L 43.386719 60.238281 L 43.386719 59.628906 L 43.617188 59.585938 C 43.507812 59.753906 43.386719 59.890625 43.257812 60.003906 C 43.125 60.109375 42.980469 60.1875 42.816406 60.238281 C 42.652344 60.292969 42.472656 60.320312 42.273438 60.320312 Z M 42.273438 60.320312 " fill-opacity="1" fill-rule="nonzero"/><path fill="#ffffff" d="M 38.640625 60.324219 C 38.390625 60.324219 38.152344 60.277344 37.9375 60.183594 C 37.726562 60.085938 37.554688 59.945312 37.421875 59.761719 L 37.515625 59.546875 L 37.515625 60.238281 L 36.566406 60.238281 L 36.566406 54.996094 L 37.585938 54.996094 L 37.585938 57.179688 L 37.429688 56.972656 C 37.550781 56.78125 37.714844 56.636719 37.921875 56.535156 C 38.136719 56.429688 38.378906 56.375 38.648438 56.375 C 39 56.375 39.320312 56.464844 39.605469 56.640625 C 39.890625 56.8125 40.113281 57.050781 40.28125 57.351562 C 40.449219 57.648438 40.535156 57.980469 40.535156 58.347656 C 40.535156 58.714844 40.449219 59.046875 40.28125 59.347656 C 40.121094 59.648438 39.894531 59.882812 39.613281 60.058594 C 39.328125 60.234375 39.003906 60.324219 38.640625 60.324219 Z M 38.519531 59.386719 C 38.710938 59.386719 38.878906 59.34375 39.023438 59.257812 C 39.167969 59.167969 39.28125 59.046875 39.359375 58.890625 C 39.441406 58.734375 39.484375 58.550781 39.484375 58.347656 C 39.484375 58.144531 39.441406 57.96875 39.359375 57.816406 C 39.28125 57.660156 39.167969 57.535156 39.023438 57.449219 C 38.878906 57.355469 38.710938 57.3125 38.519531 57.3125 C 38.339844 57.3125 38.175781 57.355469 38.03125 57.441406 C 37.890625 57.53125 37.78125 57.652344 37.699219 57.808594 C 37.625 57.964844 37.585938 58.144531 37.585938 58.347656 C 37.585938 58.550781 37.625 58.734375 37.699219 58.890625 C 37.78125 59.046875 37.890625 59.167969 38.03125 59.257812 C 38.175781 59.34375 38.339844 59.386719 38.519531 59.386719 Z M 38.519531 59.386719 " fill-opacity="1" fill-rule="nonzero"/><path fill="#ffffff" d="M 33.988281 60.320312 C 33.621094 60.320312 33.285156 60.234375 32.984375 60.066406 C 32.6875 59.894531 32.445312 59.660156 32.265625 59.363281 C 32.089844 59.066406 32 58.726562 32 58.347656 C 32 57.964844 32.089844 57.625 32.265625 57.328125 C 32.445312 57.035156 32.6875 56.800781 32.984375 56.628906 C 33.285156 56.457031 33.621094 56.375 33.988281 56.375 C 34.351562 56.375 34.683594 56.457031 34.984375 56.628906 C 35.28125 56.800781 35.519531 57.035156 35.695312 57.328125 C 35.875 57.625 35.964844 57.964844 35.964844 58.347656 C 35.964844 58.726562 35.875 59.066406 35.695312 59.363281 C 35.519531 59.660156 35.28125 59.894531 34.984375 60.066406 C 34.683594 60.234375 34.351562 60.320312 33.988281 60.320312 Z M 33.988281 59.386719 C 34.171875 59.386719 34.332031 59.34375 34.46875 59.253906 C 34.609375 59.167969 34.71875 59.042969 34.792969 58.886719 C 34.875 58.730469 34.917969 58.550781 34.917969 58.347656 C 34.917969 58.144531 34.875 57.964844 34.792969 57.8125 C 34.71875 57.65625 34.609375 57.535156 34.46875 57.445312 C 34.332031 57.355469 34.171875 57.308594 33.988281 57.308594 C 33.800781 57.308594 33.640625 57.355469 33.5 57.445312 C 33.359375 57.535156 33.25 57.65625 33.167969 57.8125 C 33.089844 57.964844 33.050781 58.144531 33.050781 58.347656 C 33.050781 58.550781 33.089844 58.730469 33.167969 58.886719 C 33.25 59.042969 33.359375 59.167969 33.5 59.253906 C 33.640625 59.34375 33.800781 59.386719 33.988281 59.386719 Z M 33.988281 59.386719 " fill-opacity="1" fill-rule="nonzero"/><path fill="#ffffff" d="M 30.390625 54.996094 L 31.40625 54.996094 L 31.40625 60.238281 L 30.390625 60.238281 Z M 30.390625 54.996094 " fill-opacity="1" fill-rule="nonzero"/><g clip-path="url(#be864cd07d)"><path fill="#ffffff" d="M 27.445312 60.324219 C 27.085938 60.324219 26.75 60.257812 26.4375 60.121094 C 26.125 59.988281 25.851562 59.800781 25.617188 59.5625 C 25.382812 59.320312 25.199219 59.039062 25.066406 58.714844 C 24.9375 58.394531 24.871094 58.039062 24.871094 57.65625 C 24.871094 57.273438 24.933594 56.921875 25.0625 56.597656 C 25.1875 56.269531 25.367188 55.988281 25.597656 55.753906 C 25.828125 55.511719 26.09375 55.328125 26.402344 55.199219 C 26.714844 55.0625 27.054688 54.996094 27.417969 54.996094 C 27.785156 54.996094 28.113281 55.058594 28.402344 55.183594 C 28.695312 55.308594 28.945312 55.476562 29.148438 55.683594 C 29.351562 55.890625 29.496094 56.121094 29.582031 56.375 L 28.652344 56.832031 C 28.566406 56.582031 28.414062 56.378906 28.199219 56.214844 C 27.988281 56.050781 27.726562 55.96875 27.417969 55.96875 C 27.121094 55.96875 26.859375 56.039062 26.632812 56.179688 C 26.40625 56.324219 26.230469 56.523438 26.105469 56.777344 C 25.984375 57.027344 25.921875 57.320312 25.921875 57.65625 C 25.921875 57.992188 25.988281 58.289062 26.117188 58.542969 C 26.25 58.796875 26.425781 58.996094 26.652344 59.140625 C 26.882812 59.28125 27.148438 59.355469 27.445312 59.355469 C 27.675781 59.355469 27.890625 59.308594 28.089844 59.222656 C 28.292969 59.128906 28.457031 59 28.578125 58.828125 C 28.703125 58.65625 28.769531 58.449219 28.769531 58.210938 L 28.769531 57.78125 L 29.25 58.195312 L 27.417969 58.195312 L 27.417969 57.296875 L 29.820312 57.296875 L 29.820312 57.84375 C 29.820312 58.265625 29.75 58.632812 29.617188 58.945312 C 29.480469 59.253906 29.296875 59.511719 29.066406 59.722656 C 28.839844 59.925781 28.585938 60.078125 28.300781 60.179688 C 28.019531 60.273438 27.734375 60.324219 27.445312 60.324219 Z M 27.445312 60.324219 " fill-opacity="1" fill-rule="nonzero"/></g></svg>